<svg width="24" height="24" viewBox="0 0 24 24" fill="none" xmlns="http://www.w3.org/2000/svg">
<g id="ant-design:instagram-filled" clip-path="url(#clip0_128_1261)">
<path id="Vector" d="M12 8.03225C9.81517 8.03225 8.03221 9.81521 8.03221 12C8.03221 14.1848 9.81517 15.9678 12 15.9678C14.1848 15.9678 15.9677 14.1848 15.9677 12C15.9677 9.81521 14.1848 8.03225 12 8.03225ZM23.9003 12C23.9003 10.3569 23.9151 8.72877 23.8229 7.08868C23.7306 5.18368 23.296 3.493 21.903 2.09997C20.507 0.703957 18.8193 0.272356 16.9143 0.180083C15.2712 0.0878091 13.643 0.102692 12.0029 0.102692C10.3599 0.102692 8.7317 0.0878091 7.09161 0.180083C5.18661 0.272356 3.49593 0.706934 2.1029 2.09997C0.706887 3.49597 0.275286 5.18368 0.183012 7.08868C0.0907388 8.73175 0.105622 10.3599 0.105622 12C0.105622 13.6401 0.0907388 15.2713 0.183012 16.9113C0.275286 18.8163 0.709864 20.507 2.1029 21.9001C3.4989 23.2961 5.18661 23.7277 7.09161 23.8199C8.73468 23.9122 10.3629 23.8973 12.0029 23.8973C13.646 23.8973 15.2742 23.9122 16.9143 23.8199C18.8193 23.7277 20.51 23.2931 21.903 21.9001C23.299 20.504 23.7306 18.8163 23.8229 16.9113C23.9181 15.2713 23.9003 13.6431 23.9003 12ZM12 18.1049C8.62157 18.1049 5.89504 15.3784 5.89504 12C5.89504 8.62161 8.62157 5.89508 12 5.89508C15.3784 5.89508 18.1049 8.62161 18.1049 12C18.1049 15.3784 15.3784 18.1049 12 18.1049ZM18.3549 7.07082C17.5661 7.07082 16.9292 6.43384 16.9292 5.64505C16.9292 4.85626 17.5661 4.21928 18.3549 4.21928C19.1437 4.21928 19.7807 4.85626 19.7807 5.64505C19.7809 5.83235 19.7442 6.01786 19.6726 6.19095C19.6011 6.36404 19.4961 6.52131 19.3636 6.65375C19.2312 6.78619 19.0739 6.8912 18.9008 6.96277C18.7277 7.03434 18.5422 7.07106 18.3549 7.07082Z" fill="white"/>
</g>
<defs>
<clipPath id="clip0_128_1261">
<rect width="24" height="24" fill="white"/>
</clipPath>
</defs>
</svg>
