<svg width="24" height="24" viewBox="0 0 24 24" fill="none" xmlns="http://www.w3.org/2000/svg">
<g id="quote 1">
<path id="Vector" d="M4.70107 17.7C3.70107 16.6 3.10107 15.4 3.10107 13.4C3.10107 9.9 5.60107 6.8 9.10107 5.2L10.0011 6.5C6.70107 8.3 6.00107 10.6 5.80107 12.1C6.30107 11.8 7.00107 11.7 7.70107 11.8C9.50107 12 10.9011 13.4 10.9011 15.3C10.9011 16.2 10.5011 17.1 9.90107 17.8C9.20107 18.5 8.40107 18.8 7.40107 18.8C6.30107 18.8 5.30107 18.3 4.70107 17.7ZM14.7011 17.7C13.7011 16.6 13.1011 15.4 13.1011 13.4C13.1011 9.9 15.6011 6.8 19.1011 5.2L20.0011 6.5C16.7011 8.3 16.0011 10.6 15.8011 12.1C16.3011 11.8 17.0011 11.7 17.7011 11.8C19.5011 12 20.9011 13.4 20.9011 15.3C20.9011 16.2 20.5011 17.1 19.9011 17.8C19.3011 18.5 18.4011 18.8 17.4011 18.8C16.3011 18.8 15.3011 18.3 14.7011 17.7Z" fill="#66686C"/>
</g>
</svg>
