<svg width="14" height="13" viewBox="0 0 14 13" fill="none" xmlns="http://www.w3.org/2000/svg">
<path id="Star 6" d="M6.42937 0.756229C6.60898 0.203442 7.39102 0.203444 7.57063 0.75623L8.6614 4.11327C8.74173 4.36049 8.9721 4.52786 9.23204 4.52786H12.7618C13.3431 4.52786 13.5847 5.27163 13.1145 5.61327L10.2588 7.68804C10.0485 7.84083 9.96055 8.11165 10.0409 8.35886L11.1316 11.7159C11.3113 12.2687 10.6786 12.7284 10.2083 12.3867L7.35267 10.312C7.14238 10.1592 6.85762 10.1592 6.64733 10.312L3.79166 12.3867C3.32143 12.7284 2.68874 12.2687 2.86835 11.7159L3.95912 8.35886C4.03945 8.11165 3.95145 7.84083 3.74116 7.68804L0.885485 5.61327C0.415257 5.27163 0.656924 4.52786 1.23816 4.52786H4.76796C5.0279 4.52786 5.25827 4.36049 5.3386 4.11327L6.42937 0.756229Z" fill="#D9D9D9"/>
</svg>
