<svg width="32" height="32" viewBox="0 0 32 32" fill="none" xmlns="http://www.w3.org/2000/svg">
<g id="telephone 1">
<g id="Group 270988521">
<g id="Group">
<g id="Group_2">
<path id="Vector" d="M29.3345 12.8668C29.3345 8.71279 25.9549 5.33325 21.8009 5.33325H10.6447C6.49062 5.3333 3.11108 8.71284 3.11108 12.8669C3.11108 14.0936 4.10906 15.0915 5.33572 15.0915H7.4592L5.92175 18.5732C5.37843 19.8036 5.10293 21.1095 5.10293 22.4546V23.8812C5.10293 25.4171 6.35244 26.6666 7.8883 26.6666H24.5568C26.0928 26.6666 27.3423 25.4171 27.3423 23.8812V22.4546C27.3423 21.1095 27.0668 19.8036 26.5234 18.5732L24.9859 15.0915H27.1098C28.3365 15.0915 29.3345 14.0936 29.3345 12.8668ZM10.6447 7.05088H21.8009C24.2201 7.05088 26.2987 8.53583 27.1741 10.6419H22.2244C21.8014 10.204 21.2089 9.93095 20.5534 9.93095H11.8921C11.2355 9.93095 10.642 10.2051 10.2187 10.6444C10.2023 10.6434 10.1859 10.6418 10.1692 10.6418H5.27154C6.14685 8.53573 8.22551 7.05088 10.6447 7.05088ZM5.33572 13.3738C5.05617 13.3738 4.82877 13.1464 4.82877 12.8668C4.82877 12.6959 4.8366 12.5268 4.85115 12.3596H9.56731V13.0225C9.56731 13.2162 9.40966 13.3737 9.21601 13.3737L5.33572 13.3738ZM25.6246 22.4545V23.8811C25.6246 24.4698 25.1457 24.9487 24.5569 24.9487H7.8883C7.2996 24.9487 6.82062 24.4698 6.82062 23.8811V22.4545C6.82062 21.3498 7.04684 20.2774 7.49305 19.2669L9.33868 15.0875C10.4226 15.0238 11.285 14.1221 11.285 13.0225V12.2559C11.285 11.9211 11.5574 11.6487 11.8922 11.6487H20.5534C20.8882 11.6487 21.1605 11.9211 21.1605 12.2559V13.0225C21.1605 14.122 22.0226 15.0237 23.1065 15.0875L24.9521 19.267C25.3984 20.2774 25.6246 21.3498 25.6246 22.4545ZM23.2296 13.3738C23.0359 13.3738 22.8783 13.2162 22.8783 13.0225V12.3596H27.5944C27.609 12.5269 27.6168 12.696 27.6168 12.8669C27.6168 13.1465 27.3894 13.3739 27.1099 13.3739L23.2296 13.3738Z" fill="#808284"/>
</g>
</g>
<g id="Group_3">
<g id="Group_4">
<path id="Vector_2" d="M13.2236 19.8071C13.7484 19.8071 14.1738 19.3817 14.1738 18.8569C14.1738 18.3322 13.7484 17.9067 13.2236 17.9067C12.6989 17.9067 12.2734 18.3322 12.2734 18.8569C12.2734 19.3817 12.6989 19.8071 13.2236 19.8071Z" fill="#808284"/>
</g>
</g>
<g id="Group_5">
<g id="Group_6">
<path id="Vector_3" d="M16.2229 19.8071C16.7477 19.8071 17.1731 19.3817 17.1731 18.8569C17.1731 18.3322 16.7477 17.9067 16.2229 17.9067C15.6981 17.9067 15.2727 18.3322 15.2727 18.8569C15.2727 19.3817 15.6981 19.8071 16.2229 19.8071Z" fill="#808284"/>
</g>
</g>
<g id="Group_7">
<g id="Group_8">
<path id="Vector_4" d="M19.2219 19.8071C19.7467 19.8071 20.1721 19.3817 20.1721 18.8569C20.1721 18.3322 19.7467 17.9067 19.2219 17.9067C18.6971 17.9067 18.2717 18.3322 18.2717 18.8569C18.2717 19.3817 18.6971 19.8071 19.2219 19.8071Z" fill="#808284"/>
</g>
</g>
</g>
</g>
</svg>
