<svg width="20" height="20" viewBox="0 0 20 20" fill="none" xmlns="http://www.w3.org/2000/svg">
<g id="Frame">
<path id="Vector" d="M17.072 14.2851L13.6845 11.2051C13.5245 11.0598 13.3142 10.9823 13.0981 10.989C12.8821 10.9957 12.677 11.086 12.5262 11.2409L10.5312 13.2918C10.0512 13.2001 9.08621 12.9001 8.09287 11.9084C7.09954 10.9143 6.79871 9.94677 6.70954 9.4701L8.75954 7.4751C8.91452 7.3243 9.00482 7.11916 9.01135 6.90302C9.01788 6.68687 8.94013 6.47665 8.79454 6.31677L5.71621 2.92844C5.57044 2.76814 5.36797 2.67092 5.15174 2.65739C4.9355 2.64386 4.72249 2.71507 4.55787 2.85594L2.74787 4.40844C2.60361 4.55324 2.51761 4.74602 2.50621 4.9501C2.49287 5.15844 2.25454 10.0926 6.08121 13.9209C9.41954 17.2584 13.6012 17.5026 14.7529 17.5026C14.9212 17.5026 15.0245 17.4976 15.0529 17.4959C15.2562 17.4846 15.4482 17.3985 15.592 17.2543L17.142 15.4443C17.2837 15.2801 17.3556 15.0671 17.3424 14.8507C17.3291 14.6343 17.2318 14.4316 17.0712 14.2859L17.072 14.2851Z" fill="#00040A"/>
</g>
</svg>
