<svg width="32" height="32" viewBox="0 0 32 32" fill="none" xmlns="http://www.w3.org/2000/svg">
<g id="phone">
<path id="Vector" d="M27.9572 22.6386V25.8501C27.9584 26.1483 27.8973 26.4434 27.7779 26.7165C27.6584 26.9897 27.4832 27.2349 27.2635 27.4365C27.0439 27.638 26.7845 27.7915 26.5021 27.887C26.2196 27.9825 25.9204 28.018 25.6234 27.9911C22.3293 27.6332 19.1651 26.5076 16.385 24.7047C13.7984 23.0611 11.6055 20.8682 9.9619 18.2816C8.15272 15.4889 7.02682 12.3093 6.67544 9.00032C6.64869 8.70429 6.68387 8.40593 6.77874 8.12424C6.87362 7.84255 7.0261 7.5837 7.2265 7.36417C7.42689 7.14465 7.6708 6.96925 7.9427 6.84915C8.21459 6.72906 8.50851 6.66689 8.80575 6.66661H12.0173C12.5368 6.66149 13.0405 6.84547 13.4344 7.18423C13.8283 7.523 14.0856 7.99345 14.1583 8.50788C14.2938 9.53564 14.5452 10.5448 14.9077 11.516C15.0517 11.8992 15.0829 12.3156 14.9975 12.7159C14.9121 13.1163 14.7137 13.4837 14.4259 13.7748L13.0664 15.1343C14.5903 17.8144 16.8094 20.0335 19.4894 21.5574L20.849 20.1978C21.14 19.91 21.5075 19.7117 21.9078 19.6263C22.3082 19.5409 22.7246 19.5721 23.1077 19.7161C24.079 20.0785 25.0881 20.3299 26.1159 20.4655C26.6359 20.5388 27.1108 20.8008 27.4503 21.2014C27.7898 21.6021 27.9702 22.1136 27.9572 22.6386Z" stroke="#808284" stroke-width="2" stroke-linecap="round" stroke-linejoin="round"/>
</g>
</svg>
