<svg width="20" height="20" viewBox="0 0 20 20" fill="none" xmlns="http://www.w3.org/2000/svg">
<g id="telegram 1" clip-path="url(#clip0_308_5357)">
<path id="Vector" d="M19.6938 2.14984C19.4497 1.85014 19.0833 1.68506 18.6621 1.68506C18.4348 1.68506 18.194 1.73264 17.9464 1.82643L1.01394 8.2419C0.11363 8.58309 -0.0075458 9.09666 0.000345121 9.37241C0.00819697 9.6468 0.15707 10.1489 1.06328 10.4388L4.65423 11.7547L6.54676 16.0868C6.737 16.686 7.13452 17.1063 7.64188 17.2426C7.75884 17.2741 7.87825 17.2895 7.99853 17.2895C8.41058 17.2895 8.83247 17.1081 9.19682 16.7659L10.7648 15.2928L14.5905 17.926C14.935 18.1806 15.3099 18.3151 15.6755 18.315C16.4175 18.315 17.0093 17.7719 17.1831 16.9313L19.9524 3.53771C20.0662 2.98726 19.9744 2.49439 19.6938 2.14984ZM5.84431 11.5514L10.7309 8.93095L7.32526 12.0549C7.20401 12.1661 7.13647 12.3228 7.13627 12.486C7.13604 12.4921 7.1353 12.4979 7.13526 12.5039L7.1235 14.4795L5.84431 11.5514ZM8.39444 15.9117C8.35831 15.9457 8.3221 15.9755 8.28631 16.0015L8.30065 13.5967L9.77692 14.6128L8.39444 15.9117ZM18.8048 3.30039L16.0355 16.6939C16.0076 16.829 15.9166 17.1431 15.6754 17.1431C15.5628 17.1431 15.4231 17.0852 15.2821 16.9798C15.276 16.9753 15.2699 16.9709 15.2637 16.9667L11.046 14.0636C11.0454 14.0633 11.0448 14.0629 11.0443 14.0625L8.65965 12.4211L14.9589 6.64294C15.1766 6.44328 15.2116 6.11284 15.0406 5.87197C14.8697 5.6311 14.5462 5.55516 14.2859 5.69474L5.04553 10.65L1.4545 9.33405C1.45188 9.33308 1.44927 9.33214 1.44661 9.3312L18.3616 2.92233C18.5042 2.86831 18.6037 2.85698 18.6621 2.85698C18.691 2.85698 18.7609 2.86018 18.7851 2.88987C18.816 2.92788 18.855 3.05714 18.8048 3.30039Z" fill="white"/>
</g>
<defs>
<clipPath id="clip0_308_5357">
<rect width="20" height="20" fill="white"/>
</clipPath>
</defs>
</svg>
