<svg width="378" height="378" viewBox="0 0 378 378" fill="none" xmlns="http://www.w3.org/2000/svg">
<path d="M181.346 2.17025C186.247 0.140369 191.753 0.140374 196.654 2.17025L315.697 51.4795C320.597 53.5093 324.491 57.4028 326.521 62.3034L375.83 181.346C377.86 186.247 377.86 191.753 375.83 196.654L326.521 315.697C324.491 320.597 320.597 324.491 315.697 326.521L196.654 375.83C191.753 377.86 186.247 377.86 181.346 375.83L62.3034 326.521C57.4028 324.491 53.5093 320.597 51.4795 315.697L2.17025 196.654C0.140369 191.753 0.140374 186.247 2.17025 181.346L51.4795 62.3034C53.5093 57.4028 57.4028 53.5093 62.3034 51.4795L181.346 2.17025Z" fill="#7007CA" fill-opacity="0.1"/>
</svg>
