<svg width="32" height="32" viewBox="0 0 32 32" fill="none" xmlns="http://www.w3.org/2000/svg">
<g id="breathing" clip-path="url(#clip0_515_371)">
<path id="Vector" d="M26.145 25.5674C25.6075 25.2624 24.9975 24.9174 24.7875 24.6499C24.36 24.0999 24.19 22.6349 24.23 21.7899C24.25 21.3724 24.8275 19.9024 25.3875 18.4799C26.245 16.2949 27.22 13.8199 27.335 12.4474C27.585 9.3799 26.7325 5.1974 23.545 2.6524C22.09 1.4999 19.43 0.189904 16.325 0.0174039C13.86 -0.117596 10.325 0.447404 7.43998 3.9274C6.06748 5.5849 5.34498 6.8774 5.29498 7.7649C5.29498 7.8149 5.06998 12.7649 5.46998 13.3174C5.52248 13.3874 5.58248 13.4649 5.64748 13.5449C5.79077 13.7048 5.90956 13.8851 5.99998 14.0799C5.95248 14.2449 5.69498 14.8574 4.41998 17.1324L4.32498 17.2974C4.1826 17.5985 4.1374 17.9363 4.19563 18.2642C4.25386 18.5921 4.41264 18.8938 4.64998 19.1274C4.90981 19.2995 5.19735 19.4255 5.49998 19.4999C5.64498 19.5474 5.86248 19.6174 5.99998 19.6749C5.98106 19.9268 5.92198 20.1741 5.82498 20.4074C5.46998 21.0299 6.22748 21.4899 6.89498 21.9074L7.03248 21.9899C6.96498 22.0949 6.88248 22.2199 6.81998 22.3074C6.62416 22.5605 6.46819 22.8421 6.35748 23.1424C6.25498 23.5299 6.57248 23.7524 6.78248 23.8924C6.9034 23.9682 7.015 24.058 7.11498 24.1599C7.11498 24.1849 7.08998 24.2499 7.07498 24.3024C6.97093 24.6279 6.89892 24.9629 6.85998 25.3024C6.72498 26.3599 7.84748 27.1424 8.63247 27.4124C9.01748 27.5449 10.8525 27.3024 11.7825 27.0099C12.4516 28.4934 12.9757 30.0381 13.3475 31.6224C13.3724 31.7357 13.4359 31.8367 13.5271 31.9083C13.6183 31.9799 13.7315 32.0176 13.8475 32.0149C13.884 32.0197 13.921 32.0197 13.9575 32.0149C14.0867 31.9862 14.1992 31.9075 14.2704 31.7959C14.3417 31.6844 14.3658 31.5492 14.3375 31.4199C14.0703 30.2843 13.7305 29.1669 13.32 28.0749C12.57 26.0749 12.32 26.0074 12.1175 25.9449C12.0374 25.9214 11.9529 25.9171 11.8708 25.9323C11.7887 25.9475 11.7114 25.9818 11.645 26.0324C10.7658 26.2825 9.86059 26.4301 8.94748 26.4724C8.39248 26.2749 7.81748 25.8074 7.86248 25.4399C7.89613 25.1625 7.95555 24.8888 8.03998 24.6224C8.06819 24.5405 8.09157 24.457 8.10998 24.3724L8.24498 24.3199C8.30947 24.2989 8.36901 24.265 8.41999 24.2203C8.47097 24.1755 8.51231 24.1209 8.54151 24.0597C8.5707 23.9985 8.58714 23.932 8.58981 23.8642C8.59249 23.7964 8.58135 23.7288 8.55707 23.6655C8.53279 23.6021 8.49588 23.5444 8.44859 23.4958C8.40129 23.4472 8.3446 23.4087 8.28197 23.3827C8.21933 23.3567 8.15206 23.3437 8.08424 23.3445C8.01642 23.3453 7.94947 23.3599 7.88748 23.3874L7.78248 23.4274C7.68506 23.336 7.58057 23.2524 7.46998 23.1774C7.53248 23.0799 7.60248 22.9749 7.65748 22.8974C7.98998 22.3974 8.36998 21.8549 7.95498 21.4399C7.79218 21.2999 7.61444 21.1784 7.42498 21.0774C7.21675 20.9561 7.01482 20.8242 6.81998 20.6824L6.85748 20.5599C6.87245 20.5611 6.8875 20.5611 6.90248 20.5599L7.38248 20.4549C7.44666 20.441 7.50747 20.4145 7.56142 20.377C7.61538 20.3396 7.66144 20.2919 7.69695 20.2366C7.73247 20.1814 7.75676 20.1197 7.76843 20.055C7.7801 19.9904 7.77893 19.9241 7.76498 19.8599C7.75102 19.7957 7.72456 19.7349 7.68711 19.681C7.64966 19.627 7.60194 19.5809 7.54669 19.5454C7.49144 19.5099 7.42974 19.4856 7.3651 19.4739C7.30046 19.4623 7.23416 19.4635 7.16998 19.4774L7.01248 19.5099C7.01248 19.4674 7.01248 19.4299 6.99998 19.3949C6.92498 18.9499 6.45998 18.7999 5.81748 18.5899C5.64774 18.5388 5.48083 18.4787 5.31748 18.4099C5.25995 18.3271 5.22176 18.2325 5.20575 18.1329C5.18974 18.0334 5.19631 17.9316 5.22498 17.8349L5.31498 17.6699C6.86748 14.8049 6.99998 14.3499 6.99998 14.1024C6.99998 13.6374 6.68248 13.2424 6.42998 12.9224C6.38998 12.8749 6.35498 12.8274 6.32248 12.7849C6.20248 12.2299 6.22498 9.0499 6.29498 7.8224C6.32998 7.1799 7.02748 5.9924 8.20998 4.5724C13 -1.2351 20.3225 1.3599 22.9225 3.4349C26.64 6.4024 26.4225 11.3924 26.3375 12.3624C26.235 13.5899 25.25 16.0974 24.4575 18.1124C23.6925 20.0599 23.25 21.1874 23.23 21.7499C23.2 22.4124 23.275 24.3399 24 25.2699C24.33 25.6949 24.9725 26.0599 25.6525 26.4449C26.0575 26.6749 26.7325 27.0574 26.85 27.2424C26.8798 27.3717 26.9598 27.4838 27.0723 27.5542C27.1848 27.6245 27.3207 27.6472 27.45 27.6174C27.5793 27.5876 27.6914 27.5076 27.7617 27.3951C27.8321 27.2825 27.8548 27.1467 27.825 27.0174C27.7125 26.4549 27.02 26.0624 26.145 25.5674ZM12.2775 26.7499C12.2321 26.7958 12.1776 26.8316 12.1175 26.8549C12.1758 26.8283 12.2298 26.7928 12.2775 26.7499Z" fill="#7007CA"/>
<path id="Vector_2" d="M21.5001 28.415C21.4633 28.3605 21.4162 28.3137 21.3614 28.2775C21.3065 28.2412 21.2451 28.2161 21.1806 28.2035C21.116 28.191 21.0496 28.1913 20.9852 28.2044C20.9208 28.2175 20.8596 28.2432 20.8051 28.28C20.7506 28.3167 20.7039 28.3639 20.6676 28.4187C20.6313 28.4735 20.6062 28.535 20.5937 28.5995C20.5811 28.664 20.5814 28.7304 20.5945 28.7948C20.6077 28.8593 20.6333 28.9205 20.6701 28.975C20.8651 29.2625 21.0551 29.535 21.2376 29.7925C21.3145 29.9005 21.4312 29.9736 21.562 29.9957C21.6928 30.0177 21.827 29.9869 21.9351 29.91C22.0432 29.833 22.1163 29.7164 22.1383 29.5855C22.1603 29.4547 22.1295 29.3205 22.0526 29.2125C21.8726 28.9625 21.6876 28.695 21.5001 28.415Z" fill="#7007CA"/>
<path id="Vector_3" d="M20.0175 25.9375C19.9571 25.8191 19.8522 25.7296 19.7259 25.6885C19.5995 25.6475 19.4621 25.6584 19.3437 25.7187C19.2254 25.779 19.1358 25.8839 19.0948 26.0103C19.0538 26.1366 19.0646 26.2741 19.125 26.3925C19.27 26.675 19.4325 26.9725 19.6075 27.2775C19.6513 27.3534 19.7143 27.4165 19.7902 27.4603C19.8662 27.5042 19.9523 27.5274 20.04 27.5275C20.1278 27.5273 20.214 27.504 20.29 27.46C20.4046 27.3936 20.4882 27.2844 20.5224 27.1565C20.5566 27.0285 20.5386 26.8922 20.4725 26.7775C20.3075 26.5 20.1525 26.2075 20.0175 25.9375Z" fill="#7007CA"/>
<path id="Vector_4" d="M17.93 23.6451C18.05 23.9476 18.18 24.2551 18.2975 24.5651C18.3349 24.6577 18.3992 24.7369 18.4821 24.7926C18.5649 24.8483 18.6626 24.8779 18.7625 24.8776C18.8268 24.8773 18.8904 24.8646 18.95 24.8401C19.0109 24.8154 19.0664 24.7789 19.1132 24.7327C19.1601 24.6865 19.1973 24.6315 19.2229 24.5709C19.2484 24.5103 19.2617 24.4453 19.2621 24.3795C19.2625 24.3137 19.2498 24.2485 19.225 24.1876C19.0975 23.8801 18.975 23.5776 18.8625 23.2801C18.814 23.1565 18.7185 23.0571 18.5968 23.0039C18.4752 22.9507 18.3374 22.948 18.2137 22.9964C18.09 23.0448 17.9907 23.1403 17.9375 23.262C17.8843 23.3836 17.8816 23.5215 17.93 23.6451Z" fill="#7007CA"/>
<path id="Vector_5" d="M15.5676 19.6301C15.6151 19.6551 15.6626 19.6801 15.7076 19.7076C15.7864 19.7564 15.8773 19.7824 15.9701 19.7826C16.0784 19.7806 16.1832 19.7434 16.2686 19.6767C16.354 19.61 16.4155 19.5174 16.4437 19.4128C16.4719 19.3081 16.4653 19.1972 16.425 19.0966C16.3847 18.996 16.3128 18.9112 16.2201 18.8551C16.1456 18.8095 16.0688 18.7678 15.9901 18.7301C15.7062 18.5993 15.4032 18.5149 15.0926 18.4801C14.96 18.4638 14.8263 18.5009 14.7211 18.5832C14.6158 18.6655 14.5476 18.7862 14.5313 18.9188C14.5151 19.0514 14.5522 19.185 14.6345 19.2903C14.7167 19.3956 14.8375 19.4638 14.9701 19.4801C15.1758 19.4989 15.3774 19.5495 15.5676 19.6301Z" fill="#7007CA"/>
<path id="Vector_6" d="M17.6675 20.5175C17.6358 20.4599 17.5931 20.4091 17.5418 20.368C17.4904 20.3269 17.4315 20.2963 17.3684 20.2779C17.3052 20.2596 17.2391 20.2539 17.1737 20.2611C17.1084 20.2683 17.0451 20.2883 16.9875 20.32C16.9299 20.3517 16.879 20.3944 16.8379 20.4457C16.7968 20.497 16.7662 20.556 16.7479 20.6191C16.7296 20.6822 16.7238 20.7484 16.7311 20.8137C16.7383 20.8791 16.7583 20.9424 16.79 21C16.9225 21.25 17.055 21.515 17.2025 21.845C17.2417 21.9336 17.3058 22.0089 17.3871 22.0617C17.4683 22.1145 17.5631 22.1426 17.66 22.1425C17.7288 22.1419 17.7968 22.1275 17.86 22.1C17.9805 22.0454 18.0744 21.9453 18.1213 21.8216C18.1682 21.6979 18.1641 21.5607 18.11 21.44C17.96 21.085 17.8125 20.785 17.6675 20.5175Z" fill="#7007CA"/>
<path id="Vector_7" d="M10.6475 19.2776C10.6369 19.2127 10.6136 19.1506 10.579 19.0948C10.5443 19.0389 10.499 18.9904 10.4456 18.9521C10.3922 18.9138 10.3317 18.8864 10.2677 18.8715C10.2037 18.8565 10.1374 18.8544 10.0725 18.8651L9.09505 19.0376C8.96244 19.0499 8.84013 19.1143 8.75504 19.2167C8.66994 19.3192 8.62903 19.4512 8.6413 19.5838C8.65356 19.7165 8.718 19.8388 8.82045 19.9239C8.92289 20.0089 9.05494 20.0499 9.18755 20.0376C9.21743 20.0413 9.24766 20.0413 9.27755 20.0376C9.58255 19.9826 9.90505 19.9251 10.2375 19.8701C10.304 19.8593 10.3675 19.8353 10.4244 19.7993C10.4813 19.7634 10.5303 19.7164 10.5686 19.6611C10.6069 19.6058 10.6336 19.5433 10.6472 19.4774C10.6607 19.4115 10.6609 19.3435 10.6475 19.2776Z" fill="#7007CA"/>
<path id="Vector_8" d="M13.5774 18.9499C13.5647 18.8199 13.5016 18.7 13.4016 18.6159C13.3016 18.5318 13.1727 18.4902 13.0424 18.4999C12.7324 18.5224 12.3974 18.5549 12.0424 18.5949C11.9098 18.6026 11.7856 18.6626 11.6973 18.7617C11.6089 18.8609 11.5635 18.9911 11.5711 19.1237C11.5788 19.2563 11.6388 19.3804 11.7379 19.4688C11.8371 19.5572 11.9673 19.6026 12.0999 19.5949H12.1574C12.4999 19.5399 12.8199 19.4999 13.1149 19.4999C13.1818 19.4953 13.247 19.4772 13.3068 19.4468C13.3665 19.4164 13.4196 19.3743 13.4627 19.323C13.5058 19.2716 13.5382 19.2122 13.5579 19.1481C13.5776 19.084 13.5843 19.0166 13.5774 18.9499Z" fill="#7007CA"/>
<path id="Vector_9" d="M23.2099 30.7875C23.131 30.6807 23.0129 30.6097 22.8816 30.59C22.7504 30.5703 22.6166 30.6036 22.5099 30.6825C22.4032 30.7614 22.3321 30.8795 22.3124 31.0107C22.2927 31.142 22.326 31.2757 22.4049 31.3825C22.5524 31.58 22.6024 31.6575 22.6199 31.6875C22.6572 31.7797 22.7211 31.8586 22.8035 31.9143C22.8859 31.9699 22.983 31.9998 23.0824 32C23.1314 31.9997 23.1801 31.9929 23.2274 31.98C23.3544 31.9418 23.461 31.8548 23.5238 31.7381C23.5866 31.6214 23.6005 31.4845 23.5624 31.3575C23.4775 31.1492 23.3584 30.9565 23.2099 30.7875Z" fill="#7007CA"/>
<path id="Vector_10" d="M18.1651 26.0874C18.0051 25.7974 17.8301 25.5049 17.6451 25.2174C17.5696 25.1171 17.4591 25.0488 17.3356 25.0262C17.2121 25.0036 17.0846 25.0283 16.9785 25.0954C16.8723 25.1625 16.7953 25.2671 16.7627 25.3883C16.7302 25.5096 16.7444 25.6386 16.8026 25.7499C16.9776 26.0199 17.1426 26.2949 17.3026 26.5649C17.3321 26.6263 17.3739 26.6811 17.4253 26.7258C17.4768 26.7705 17.5368 26.8042 17.6018 26.8248C17.6668 26.8455 17.7353 26.8526 17.8031 26.8458C17.8709 26.839 17.9366 26.8184 17.9962 26.7853C18.0558 26.7522 18.1079 26.7073 18.1495 26.6532C18.1911 26.5992 18.2212 26.5373 18.2379 26.4712C18.2547 26.4052 18.2577 26.3364 18.2469 26.2691C18.2361 26.2018 18.2117 26.1374 18.1751 26.0799L18.1651 26.0874Z" fill="#7007CA"/>
<path id="Vector_11" d="M15.7649 22.8224C15.7195 22.7721 15.6644 22.7316 15.6029 22.7033C15.5413 22.675 15.4747 22.6594 15.407 22.6576C15.3393 22.6559 15.2719 22.6678 15.209 22.6929C15.146 22.7179 15.0889 22.7555 15.0409 22.8033C14.9929 22.8511 14.9551 22.9082 14.9299 22.971C14.9046 23.0339 14.8924 23.1012 14.8939 23.1689C14.8955 23.2366 14.9108 23.3033 14.9389 23.3649C14.967 23.4265 15.0073 23.4818 15.0574 23.5274C15.2549 23.7274 15.4674 23.9624 15.6824 24.2224C15.7294 24.2788 15.7883 24.3242 15.8548 24.3553C15.9214 24.3864 15.994 24.4025 16.0674 24.4024C16.1625 24.4025 16.2557 24.3756 16.336 24.3247C16.4163 24.2737 16.4804 24.201 16.5208 24.1149C16.5612 24.0288 16.5763 23.933 16.5641 23.8387C16.552 23.7444 16.5133 23.6555 16.4524 23.5824C16.2174 23.2999 15.9849 23.0424 15.7649 22.8224Z" fill="#7007CA"/>
<path id="Vector_12" d="M9.89756 23.6574C9.95027 23.6579 10.0027 23.6494 10.0526 23.6324C10.3501 23.5349 10.6601 23.4399 10.9751 23.3474C11.0381 23.329 11.0969 23.2984 11.1481 23.2573C11.1993 23.2162 11.2419 23.1654 11.2735 23.1078C11.305 23.0503 11.325 22.987 11.3321 22.9218C11.3392 22.8565 11.3334 22.7905 11.3151 22.7274C11.2967 22.6644 11.2661 22.6056 11.2249 22.5544C11.1838 22.5032 11.1331 22.4606 11.0755 22.429C11.0179 22.3975 10.9547 22.3775 10.8894 22.3704C10.8241 22.3633 10.7581 22.369 10.6951 22.3874C10.3701 22.4824 10.0476 22.5824 9.74256 22.6824C9.62969 22.7195 9.53372 22.7956 9.47184 22.897C9.40997 22.9985 9.38623 23.1186 9.40488 23.2359C9.42354 23.3533 9.48336 23.4601 9.57364 23.5374C9.66392 23.6146 9.77875 23.6572 9.89756 23.6574Z" fill="#7007CA"/>
<path id="Vector_13" d="M12.7501 22.9151C12.7775 22.9175 12.8052 22.9175 12.8326 22.9151C13.1282 22.8628 13.4275 22.8344 13.7276 22.8301C13.8602 22.8301 13.9874 22.7774 14.0811 22.6836C14.1749 22.5899 14.2276 22.4627 14.2276 22.3301C14.2276 22.1975 14.1749 22.0703 14.0811 21.9765C13.9874 21.8828 13.8602 21.8301 13.7276 21.8301C13.3731 21.8346 13.0195 21.8672 12.6701 21.9276C12.5375 21.9382 12.4145 22.001 12.3283 22.1023C12.242 22.2036 12.1995 22.335 12.2101 22.4676C12.2207 22.6002 12.2836 22.7231 12.3848 22.8094C12.4861 22.8957 12.6175 22.9382 12.7501 22.9276V22.9151Z" fill="#7007CA"/>
<path id="Vector_14" d="M18.9149 29.545C19.0441 29.5163 19.1566 29.4376 19.2279 29.3261C19.2991 29.2145 19.3232 29.0793 19.2949 28.95C19.2205 28.6119 19.1279 28.2781 19.0174 27.95C18.9746 27.8244 18.8837 27.7209 18.7646 27.6623C18.6455 27.6037 18.508 27.5948 18.3824 27.6375C18.2568 27.6803 18.1532 27.7712 18.0946 27.8903C18.036 28.0094 18.0271 28.1469 18.0699 28.2725C18.1689 28.5654 18.2523 28.8633 18.3199 29.165C18.3453 29.2778 18.409 29.3783 18.5002 29.4494C18.5913 29.5205 18.7043 29.5579 18.8199 29.555C18.8519 29.5556 18.8838 29.5522 18.9149 29.545Z" fill="#7007CA"/>
<path id="Vector_15" d="M19.5601 31.14V30.98C19.5541 30.8473 19.4957 30.7225 19.3977 30.633C19.3492 30.5887 19.2924 30.5543 19.2306 30.5319C19.1688 30.5095 19.1032 30.4995 19.0376 30.5025C18.905 30.5084 18.7802 30.5668 18.6906 30.6648C18.6011 30.7628 18.5541 30.8923 18.5601 31.025V31.18C18.5596 31.3284 18.573 31.4765 18.6001 31.6225C18.628 31.7337 18.6925 31.8323 18.7832 31.9026C18.8738 31.9728 18.9854 32.0106 19.1001 32.01C19.1397 32.0099 19.1792 32.0049 19.2176 31.995C19.344 31.963 19.4529 31.8828 19.5211 31.7717C19.5893 31.6605 19.6113 31.5271 19.5826 31.4C19.5651 31.35 19.5651 31.25 19.5601 31.14Z" fill="#7007CA"/>
<path id="Vector_16" d="M9.90758 28.8049L7.69508 28.1849C7.63129 28.1652 7.56419 28.1584 7.49775 28.1651C7.43131 28.1717 7.36688 28.1916 7.30824 28.2235C7.2496 28.2554 7.19796 28.2988 7.15635 28.351C7.11474 28.4032 7.08401 28.4633 7.06598 28.5276C7.04795 28.5918 7.04297 28.6591 7.05135 28.7253C7.05973 28.7916 7.08129 28.8555 7.11476 28.9132C7.14823 28.971 7.19293 29.0215 7.24623 29.0617C7.29952 29.1019 7.36034 29.1311 7.42508 29.1474L8.48008 29.4449L5.62508 31.0649C5.52876 31.1195 5.45327 31.2045 5.41047 31.3066C5.36766 31.4087 5.35995 31.5221 5.38855 31.6291C5.41715 31.736 5.48043 31.8305 5.56848 31.8976C5.65653 31.9647 5.76437 32.0007 5.87508 31.9999C5.96267 32.0005 6.04888 31.9781 6.12508 31.9349L8.97008 30.3199L8.67758 31.3649C8.65966 31.4281 8.65438 31.4942 8.66202 31.5595C8.66966 31.6247 8.69009 31.6878 8.72213 31.7451C8.75417 31.8025 8.79719 31.853 8.84875 31.8937C8.9003 31.9344 8.95937 31.9645 9.02258 31.9824C9.06745 31.9942 9.11368 32.0001 9.16008 31.9999C9.26891 31.9996 9.37466 31.9638 9.46129 31.8979C9.54792 31.832 9.61069 31.7397 9.64008 31.6349L10.2501 29.4224C10.2864 29.2951 10.2707 29.1586 10.2065 29.0429C10.1423 28.9271 10.0348 28.8415 9.90758 28.8049Z" fill="#7007CA"/>
<path id="Vector_17" d="M30.4275 20.2C30.3951 20.1428 30.3517 20.0926 30.2998 20.0522C30.2479 20.0119 30.1885 19.9821 30.1252 19.9647C30.0618 19.9473 29.9956 19.9425 29.9303 19.9507C29.8651 19.9589 29.8021 19.9799 29.745 20.0125L26.9 21.6275L27.1925 20.5825C27.2122 20.5187 27.219 20.4516 27.2124 20.3852C27.2057 20.3187 27.1859 20.2543 27.1539 20.1957C27.122 20.137 27.0786 20.0854 27.0264 20.0438C26.9742 20.0022 26.9142 19.9714 26.8499 19.9534C26.7856 19.9354 26.7183 19.9304 26.6521 19.9388C26.5859 19.9471 26.522 19.9687 26.4642 20.0022C26.4064 20.0356 26.3559 20.0803 26.3157 20.1336C26.2755 20.1869 26.2464 20.2478 26.23 20.3125L25.61 22.525C25.5921 22.5882 25.5868 22.6543 25.5945 22.7195C25.6021 22.7848 25.6225 22.8479 25.6546 22.9052C25.6866 22.9626 25.7296 23.013 25.7812 23.0538C25.8327 23.0945 25.8918 23.1246 25.955 23.1425L28.1675 23.7625C28.2115 23.7743 28.2569 23.7802 28.3025 23.78C28.4225 23.7788 28.538 23.7346 28.628 23.6553C28.718 23.576 28.7766 23.4671 28.7929 23.3483C28.8093 23.2294 28.7824 23.1087 28.7172 23.008C28.6519 22.9074 28.5527 22.8336 28.4375 22.8L27.3825 22.5L30.25 20.8825C30.3638 20.8153 30.4463 20.7058 30.4796 20.5779C30.5128 20.45 30.4941 20.3141 30.4275 20.2Z" fill="#7007CA"/>
</g>
<defs>
<clipPath id="clip0_515_371">
<rect width="32" height="32" fill="white"/>
</clipPath>
</defs>
</svg>
