<svg width="20" height="30" viewBox="0 0 20 30" fill="none" xmlns="http://www.w3.org/2000/svg">
<g id="Group 2">
<g id="Group">
<g id="Group_2">
<path id="Vector" d="M1.22026 1.14382C1.11842 1.04198 0.977158 0.983398 0.833161 0.983398C0.689164 0.983398 0.547905 1.04198 0.446067 1.14382C0.344229 1.24566 0.285645 1.38692 0.285645 1.53092C0.285645 1.67491 0.344229 1.81617 0.446067 1.91801C0.547905 2.01985 0.689164 2.07843 0.833161 2.07843C0.977158 2.07843 1.11842 2.01985 1.22026 1.91801C1.32209 1.81617 1.38068 1.67491 1.38068 1.53092C1.38068 1.38692 1.32209 1.24566 1.22026 1.14382Z" fill="#7007CA"/>
</g>
</g>
<g id="Group_3">
<g id="Group_4">
<path id="Vector_2" d="M19.0227 14.6944C19.0097 14.6397 18.9885 14.5882 18.9604 14.5413C18.7322 13.9947 18.4541 13.4679 18.1274 12.9695L17.8261 12.5098C17.8106 12.4861 17.793 12.4645 17.7746 12.444C17.8649 12.2467 17.9157 12.0277 17.9157 11.797C17.9157 10.5139 16.8718 9.47006 15.5887 9.47006H14.3003C14.6111 9.03867 14.7948 8.50999 14.7948 7.93893C14.7948 7.15719 14.4613 6.40917 13.8797 5.88673L8.59049 1.13582C8.36551 0.933784 8.01937 0.952235 7.81728 1.17726C7.61525 1.40218 7.63376 1.74838 7.85873 1.95047L13.1478 6.70132C13.4986 7.01636 13.6997 7.46746 13.6997 7.93893C13.6997 8.78315 13.0129 9.47001 12.1687 9.47001H12.1119C12.0812 9.47001 12.0506 9.47258 12.0204 9.47773L6.56298 10.4036C6.55843 10.4043 6.54902 10.4059 6.53812 10.3968C6.52728 10.3876 6.52728 10.3781 6.52728 10.3735V4.4876C6.52728 4.18521 6.28216 3.94009 5.97976 3.94009C5.67737 3.94009 5.43225 4.18521 5.43225 4.4876V10.3734C5.43225 10.7055 5.57778 11.019 5.8315 11.2333C6.08521 11.4476 6.41865 11.5386 6.74607 11.4831L12.1581 10.565H15.5887C16.268 10.565 16.8206 11.1176 16.8206 11.797C16.8206 12.0536 16.6119 12.2623 16.3553 12.2623H12.2215C12.1501 12.2623 12.0794 12.2763 12.0133 12.3035L6.13542 14.72C5.27544 15.0736 4.29379 15.0622 3.44219 14.6888C2.18985 14.1397 1.38068 12.9013 1.38068 11.5339V3.22832C1.38068 2.92592 1.13555 2.6808 0.833161 2.6808C0.530768 2.6808 0.285645 2.92592 0.285645 3.22832V11.5339C0.285645 13.1896 1.18631 14.7012 2.61259 15.4971V17.5942C2.61259 18.0301 2.54284 18.4608 2.4053 18.8744C1.40515 21.8819 1.32177 25.0865 2.16401 28.142L2.29421 28.6144C2.36117 28.8572 2.58149 29.0165 2.82174 29.0165C2.86992 29.0165 2.91887 29.0101 2.9676 28.9967C3.2591 28.9163 3.43025 28.6149 3.34993 28.3234L3.21973 27.851C2.4353 25.0055 2.513 22.0209 3.44443 19.22C3.61909 18.6948 3.70768 18.1478 3.70768 17.5943V15.9323C4.07386 16.0247 4.44995 16.0718 4.8262 16.0718C5.4139 16.0718 6.00177 15.9589 6.55186 15.7328L12.3296 13.3574H16.3552C16.5792 13.3574 16.7922 13.3095 16.985 13.2242L17.2115 13.5698C17.4978 14.0066 17.7398 14.4608 17.9387 14.9267C17.8845 15.6623 17.2691 16.2443 16.52 16.2443C15.3194 16.2443 14.313 17.0891 14.0625 18.2154C14.0281 18.2153 13.9937 18.2161 13.9592 18.2188C13.6375 18.2444 13.1587 18.4065 12.7046 19.0337C12.6334 19.132 12.4942 19.1769 12.3259 19.1873C12.7257 18.7403 12.9692 18.1508 12.9692 17.5053C12.9692 16.1121 11.8358 14.9787 10.4426 14.9787C9.04947 14.9787 7.91606 16.1121 7.91606 17.5053C7.91606 17.9507 8.03229 18.3692 8.23542 18.7329C8.22907 18.7533 8.22349 18.7742 8.21949 18.7957C8.21341 18.8284 8.07264 19.6067 8.26482 20.5347C8.52725 21.8021 9.27483 22.752 10.4267 23.2816C11.2603 23.6649 11.9917 23.8236 12.6197 23.8235C13.8777 23.8235 14.7196 23.186 15.1298 22.4393C15.1662 22.4867 15.1984 22.539 15.2109 22.5741C15.3149 22.9472 15.7002 23.16 16.1717 23.1038C16.7644 23.033 17.4137 22.5528 17.4391 21.6658C17.4597 20.9427 17.0159 20.1282 16.3346 19.6391C16.0075 19.4043 15.661 19.2716 15.3179 19.2436C15.2758 19.04 15.196 18.8634 15.0978 18.7288C15.1157 17.9596 15.7466 17.3392 16.52 17.3392C17.283 17.3392 17.9673 16.9976 18.4295 16.4599C19.0249 19.1773 18.2738 22.0811 16.2616 24.2051C15.5628 24.9426 15.178 25.9083 15.178 26.9242V28.4688C15.178 28.7712 15.4232 29.0163 15.7256 29.0163C16.028 29.0163 16.2731 28.7712 16.2731 28.4688V26.9242C16.2731 26.1897 16.5513 25.4915 17.0565 24.9582C18.5524 23.3792 19.4828 21.3165 19.6763 19.15C19.8119 17.6324 19.5821 16.101 19.0227 14.6944ZM10.4427 16.0738C11.232 16.0738 11.8743 16.7159 11.8743 17.5054C11.8743 18.2947 11.2321 18.9369 10.4427 18.9369C9.65333 18.9369 9.01114 18.2947 9.01114 17.5054C9.01114 16.7159 9.65333 16.0738 10.4427 16.0738ZM15.1639 20.3345C15.379 20.3294 15.5812 20.4462 15.696 20.5287C16.0697 20.797 16.3546 21.2827 16.3445 21.6346C16.3407 21.7672 16.3021 21.8642 16.2264 21.9313C16.1982 21.9563 16.1681 21.9746 16.1395 21.9877C15.9652 21.6764 15.6359 21.3032 15.1787 21.2547C14.9883 21.2346 14.5105 21.2551 14.187 21.8804C13.7981 22.6321 12.7263 23.1336 10.8841 22.2867C9.58653 21.69 9.29903 20.5114 9.26065 19.7374C9.61357 19.9251 10.0158 20.0319 10.4427 20.0319C10.5859 20.0319 10.7261 20.0193 10.8629 19.9963C11.1293 20.1061 12.8171 20.7454 13.5916 19.6759C13.7501 19.457 13.92 19.3204 14.0461 19.3104C14.1191 19.3049 14.1794 19.3445 14.2194 19.3822C14.2412 19.4196 14.2906 19.5651 14.2167 19.7687C14.0475 20.2348 13.3736 20.66 12.368 20.9354C12.0764 21.0153 11.9047 21.3165 11.9845 21.6081C12.0512 21.8514 12.2717 22.0111 12.5123 22.0111C12.5602 22.0111 12.6088 22.0048 12.6572 21.9916C14.209 21.5667 14.8827 20.9064 15.1639 20.3345Z" fill="#7007CA"/>
</g>
</g>
</g>
</svg>
