<svg width="28" height="28" viewBox="0 0 28 28" fill="none" xmlns="http://www.w3.org/2000/svg">
<g id="Group 1">
<path id="Vector" d="M2.95422 14.5223C3.19718 14.9241 3.44856 15.3392 3.67248 15.7596C4.33582 16.9355 4.76803 18.2275 4.94624 19.566C5.08075 21.0886 5.33695 22.5979 5.71222 24.0797C6.00089 25.1526 6.53914 27.1495 8.25432 27.1495C9.59964 27.1495 10.6403 24.5797 11.3461 19.5121C11.5838 17.8336 12.3095 17.6688 12.6744 17.6241C12.6888 17.6241 12.7006 17.63 12.7147 17.6322C12.7391 17.6999 12.7628 17.7687 12.7886 17.8348C13.0039 18.344 13.2627 18.8337 13.562 19.2984C13.7114 19.5454 13.8615 19.7928 13.9999 20.0508C14.3974 20.7558 14.6566 21.5302 14.7636 22.3323C14.8406 23.1049 14.9593 23.8726 15.1189 24.6322C15.1215 24.6424 15.1189 24.6529 15.1229 24.6629C15.1267 24.6731 15.1299 24.6809 15.1333 24.6909C15.1674 24.8391 15.1986 24.9874 15.2397 25.1346C15.4149 25.7885 15.7818 27.1491 16.9669 27.1491C17.3482 27.1491 18.3612 27.1491 19.0361 22.3044C19.1604 21.4284 19.4902 21.3173 19.6869 21.2888L19.7412 21.2985C19.8725 21.3255 20.2229 21.3969 20.3542 22.3056C21.0278 27.1495 22.0403 27.1495 22.4212 27.1495C23.6036 27.1495 23.9574 25.8396 24.148 25.139C24.3812 24.2174 24.5409 23.2791 24.6257 22.3323C24.7338 21.5294 24.9938 20.7544 25.3921 20.049C25.53 19.7884 25.6812 19.5388 25.8299 19.2896C26.1274 18.8271 26.3842 18.3396 26.5973 17.8326C27.332 15.9675 27.5283 13.4124 25.876 11.8331C25.3717 11.359 24.7578 11.0172 24.0893 10.8382C24.9858 7.54193 24.4231 4.53595 22.5429 2.73317C20.0134 0.304732 15.5042 0.254816 12.6862 2.54994C9.86807 0.254816 5.3592 0.304732 2.82772 2.73437C0.249135 5.20551 0.563666 9.23847 1.72015 12.1883C2.06395 13.0002 2.47671 13.7812 2.95422 14.5223ZM25.784 17.5151C25.5886 17.9758 25.3542 18.4188 25.0834 18.8394C24.924 19.1022 24.7644 19.365 24.6201 19.6396C24.1697 20.4423 23.8764 21.3235 23.7561 22.236C23.6755 23.1369 23.5246 24.03 23.3045 24.9072C23.1236 25.5682 22.8929 26.2736 22.4304 26.2736C22.2552 26.2197 21.6622 25.3519 21.2212 22.1817C21.0763 21.1744 20.6375 20.5872 19.9146 20.4397C19.8577 20.4272 19.7999 20.4176 19.742 20.4112C19.726 20.4118 19.7097 20.4132 19.6939 20.4156C19.677 20.413 19.66 20.4114 19.643 20.4108C18.8184 20.5026 18.3223 21.0982 18.1689 22.1817C17.7271 25.3541 17.1315 26.2215 16.9669 26.2736C16.4926 26.2736 16.2631 25.5686 16.0841 24.9046C15.8648 24.0272 15.7142 23.1341 15.6339 22.2334C15.515 21.3207 15.2221 20.4393 14.771 19.637C14.6267 19.3654 14.4685 19.104 14.3104 18.8434C14.0383 18.4214 13.8026 17.9772 13.6057 17.5151C12.9779 15.9132 12.7824 13.7455 14.1185 12.466C15.4546 11.1864 17.9689 11.2082 19.3992 12.5123C19.5279 12.6376 21.1797 14.2128 22.6604 14.2128C22.9021 14.2128 23.0982 14.0168 23.0982 13.7748C23.0982 13.533 22.9021 13.337 22.6604 13.337C21.9088 13.337 20.9572 12.6875 20.3805 12.2116C21.2958 11.62 22.4012 11.3971 23.4741 11.5879C24.1482 11.6944 24.7751 12.0007 25.2734 12.4672C26.6121 13.7489 26.3858 15.9855 25.784 17.5151ZM3.43413 3.36624C5.69859 1.19299 9.96629 1.22787 12.3893 3.43821C12.5601 3.60459 15.1898 6.12925 17.5034 6.12925C17.7452 6.12925 17.9412 5.9332 17.9412 5.69124C17.9412 5.44948 17.7452 5.25342 17.5034 5.25342C15.9658 5.25342 14.1213 3.79945 13.3562 3.1329C15.8243 1.23369 19.7859 1.29984 21.9395 3.36684C23.5957 4.95513 24.0656 7.66943 23.2287 10.6774C21.975 10.5437 20.7163 10.8821 19.6987 11.6268C17.8961 10.2482 15.0966 10.3132 13.5117 11.8335C12.1572 13.1315 12.0485 15.0895 12.4607 16.7822C11.3679 16.9818 10.6994 17.8525 10.4817 19.3898C9.72012 24.8351 8.69194 26.2736 8.25432 26.2736C7.29088 26.2736 6.87371 25.0237 6.55658 23.8484C6.19634 22.4101 5.94897 20.9461 5.81646 19.4692C5.62702 18.0203 5.16154 16.6212 4.44528 15.3475C4.21053 14.906 3.95273 14.4804 3.70095 14.0687C3.2495 13.3699 2.85879 12.6338 2.53344 11.8682C1.4828 9.18274 1.16566 5.53888 3.43413 3.36624Z" fill="#7007CA"/>
<path id="Vector_2" d="M3.38033 10.034C3.51684 10.034 3.64554 9.97047 3.72854 9.86181C3.81133 9.75336 3.83879 9.61223 3.80291 9.48053C2.82504 5.8956 5.10994 4.71366 5.21378 4.66154C5.42427 4.55249 5.50987 4.29569 5.40663 4.08219C5.30339 3.8687 5.049 3.77608 4.8329 3.87331C4.80343 3.88774 1.78182 5.39464 2.95755 9.71126C3.00967 9.90191 3.18267 10.034 3.38033 10.034Z" fill="#7007CA"/>
<path id="Vector_3" d="M6.99326 3.50154C6.99326 3.7435 6.79721 3.93955 6.55525 3.93955C6.31349 3.93955 6.11743 3.7435 6.11743 3.50154C6.11743 3.25978 6.31349 3.06372 6.55525 3.06372C6.79721 3.06372 6.99326 3.25978 6.99326 3.50154Z" fill="#7007CA"/>
<path id="Vector_4" d="M15.2781 12.9433C14.6064 13.3242 13.5361 14.6222 14.2958 16.8084C14.347 16.9566 14.4733 17.066 14.6272 17.0957C14.7812 17.1252 14.9391 17.0703 15.0416 16.9516C15.1438 16.8329 15.1751 16.6685 15.1232 16.5206C14.4225 14.5063 15.653 13.7393 15.7135 13.7034C15.9234 13.5834 15.9962 13.3157 15.8759 13.1057C15.7556 12.8958 15.488 12.823 15.2781 12.9433Z" fill="#7007CA"/>
<path id="Vector_5" d="M17.0653 12.698C17.0653 12.9398 16.8692 13.1358 16.6275 13.1358C16.3855 13.1358 16.1895 12.9398 16.1895 12.698C16.1895 12.4561 16.3855 12.26 16.6275 12.26C16.8692 12.26 17.0653 12.4561 17.0653 12.698Z" fill="#7007CA"/>
</g>
</svg>
