<svg width="208" height="150" viewBox="0 0 208 150" fill="none" xmlns="http://www.w3.org/2000/svg">
<g filter="url(#filter0_d_80_292)">
<rect x="10" y="10" width="188" height="130" rx="8" fill="white"/>
<rect x="80" y="22" width="48" height="48" rx="24" fill="#7007CA" fill-opacity="0.05"/>
<path d="M92.9542 46.5223C93.1972 46.9241 93.4486 47.3392 93.6725 47.7596C94.3358 48.9355 94.768 50.2275 94.9462 51.566C95.0808 53.0886 95.3369 54.5979 95.7122 56.0797C96.0009 57.1526 96.5391 59.1495 98.2543 59.1495C99.5996 59.1495 100.64 56.5797 101.346 51.5121C101.584 49.8336 102.31 49.6688 102.674 49.6241C102.689 49.6241 102.701 49.63 102.715 49.6322C102.739 49.6999 102.763 49.7687 102.789 49.8348C103.004 50.344 103.263 50.8337 103.562 51.2984C103.711 51.5454 103.862 51.7928 104 52.0508C104.397 52.7558 104.657 53.5302 104.764 54.3323C104.841 55.1049 104.959 55.8726 105.119 56.6322C105.121 56.6424 105.119 56.6529 105.123 56.6629C105.127 56.6731 105.13 56.6809 105.133 56.6909C105.167 56.8391 105.199 56.9874 105.24 57.1346C105.415 57.7885 105.782 59.1491 106.967 59.1491C107.348 59.1491 108.361 59.1491 109.036 54.3044C109.16 53.4284 109.49 53.3173 109.687 53.2888L109.741 53.2985C109.872 53.3255 110.223 53.3969 110.354 54.3056C111.028 59.1495 112.04 59.1495 112.421 59.1495C113.604 59.1495 113.957 57.8396 114.148 57.139C114.381 56.2174 114.541 55.2791 114.626 54.3323C114.734 53.5294 114.994 52.7544 115.392 52.049C115.53 51.7884 115.681 51.5388 115.83 51.2896C116.127 50.8271 116.384 50.3396 116.597 49.8326C117.332 47.9675 117.528 45.4124 115.876 43.8331C115.372 43.359 114.758 43.0172 114.089 42.8382C114.986 39.5419 114.423 36.536 112.543 34.7332C110.013 32.3047 105.504 32.2548 102.686 34.5499C99.8681 32.2548 95.3592 32.3047 92.8277 34.7344C90.2491 37.2055 90.5637 41.2385 91.7202 44.1883C92.0639 45.0002 92.4767 45.7812 92.9542 46.5223ZM115.784 49.5151C115.589 49.9758 115.354 50.4188 115.083 50.8394C114.924 51.1022 114.764 51.365 114.62 51.6396C114.17 52.4423 113.876 53.3235 113.756 54.236C113.676 55.1369 113.525 56.03 113.304 56.9072C113.124 57.5682 112.893 58.2736 112.43 58.2736C112.255 58.2197 111.662 57.3519 111.221 54.1817C111.076 53.1744 110.637 52.5872 109.915 52.4397C109.858 52.4272 109.8 52.4176 109.742 52.4112C109.726 52.4118 109.71 52.4132 109.694 52.4156C109.677 52.413 109.66 52.4114 109.643 52.4108C108.818 52.5026 108.322 53.0982 108.169 54.1817C107.727 57.3541 107.132 58.2215 106.967 58.2736C106.493 58.2736 106.263 57.5686 106.084 56.9046C105.865 56.0272 105.714 55.1341 105.634 54.2334C105.515 53.3207 105.222 52.4393 104.771 51.637C104.627 51.3654 104.469 51.104 104.31 50.8434C104.038 50.4214 103.803 49.9772 103.606 49.5151C102.978 47.9132 102.782 45.7455 104.119 44.466C105.455 43.1864 107.969 43.2082 109.399 44.5123C109.528 44.6376 111.18 46.2128 112.66 46.2128C112.902 46.2128 113.098 46.0168 113.098 45.7748C113.098 45.533 112.902 45.337 112.66 45.337C111.909 45.337 110.957 44.6875 110.38 44.2116C111.296 43.62 112.401 43.3971 113.474 43.5879C114.148 43.6944 114.775 44.0007 115.273 44.4672C116.612 45.7489 116.386 47.9855 115.784 49.5151ZM93.4341 35.3662C95.6986 33.193 99.9663 33.2279 102.389 35.4382C102.56 35.6046 105.19 38.1293 107.503 38.1293C107.745 38.1293 107.941 37.9332 107.941 37.6912C107.941 37.4495 107.745 37.2534 107.503 37.2534C105.966 37.2534 104.121 35.7994 103.356 35.1329C105.824 33.2337 109.786 33.2998 111.939 35.3668C113.596 36.9551 114.066 39.6694 113.229 42.6774C111.975 42.5437 110.716 42.8821 109.699 43.6268C107.896 42.2482 105.097 42.3132 103.512 43.8335C102.157 45.1315 102.049 47.0895 102.461 48.7822C101.368 48.9818 100.699 49.8525 100.482 51.3898C99.7201 56.8351 98.6919 58.2736 98.2543 58.2736C97.2909 58.2736 96.8737 57.0237 96.5566 55.8484C96.1963 54.4101 95.949 52.9461 95.8165 51.4692C95.627 50.0203 95.1615 48.6212 94.4453 47.3475C94.2105 46.906 93.9527 46.4804 93.7009 46.0687C93.2495 45.3699 92.8588 44.6338 92.5334 43.8682C91.4828 41.1827 91.1657 37.5389 93.4341 35.3662Z" fill="#7007CA"/>
<path d="M93.3803 42.034C93.5168 42.034 93.6455 41.9705 93.7285 41.8618C93.8113 41.7534 93.8388 41.6122 93.8029 41.4805C92.825 37.8956 95.1099 36.7137 95.2138 36.6615C95.4243 36.5525 95.5099 36.2957 95.4066 36.0822C95.3034 35.8687 95.049 35.7761 94.8329 35.8733C94.8034 35.8877 91.7818 37.3946 92.9575 41.7113C93.0097 41.9019 93.1827 42.034 93.3803 42.034Z" fill="#7007CA"/>
<path d="M96.9933 35.5015C96.9933 35.7435 96.7972 35.9396 96.5552 35.9396C96.3135 35.9396 96.1174 35.7435 96.1174 35.5015C96.1174 35.2598 96.3135 35.0637 96.5552 35.0637C96.7972 35.0637 96.9933 35.2598 96.9933 35.5015Z" fill="#7007CA"/>
<path d="M105.278 44.9433C104.606 45.3242 103.536 46.6222 104.296 48.8084C104.347 48.9566 104.473 49.066 104.627 49.0957C104.781 49.1252 104.939 49.0703 105.042 48.9516C105.144 48.8329 105.175 48.6685 105.123 48.5206C104.423 46.5063 105.653 45.7393 105.714 45.7034C105.923 45.5834 105.996 45.3157 105.876 45.1057C105.756 44.8958 105.488 44.823 105.278 44.9433Z" fill="#7007CA"/>
<path d="M107.065 44.698C107.065 44.9398 106.869 45.1358 106.627 45.1358C106.386 45.1358 106.189 44.9398 106.189 44.698C106.189 44.4561 106.386 44.26 106.627 44.26C106.869 44.26 107.065 44.4561 107.065 44.698Z" fill="#7007CA"/>
<path d="M65.9374 82.8V94H64.4494V84.208H59.2974V94H57.8094V82.8H65.9374ZM72.6126 85.792C73.7326 85.792 74.6873 86.2027 75.4766 87.024C76.266 87.8347 76.6606 88.8267 76.6606 90C76.6606 91.1733 76.266 92.1707 75.4766 92.992C74.6873 93.8027 73.7326 94.208 72.6126 94.208C71.29 94.208 70.282 93.68 69.5886 92.624V97.2H68.1966V86H69.5886V87.376C70.282 86.32 71.29 85.792 72.6126 85.792ZM72.4366 92.864C73.2366 92.864 73.9086 92.592 74.4526 92.048C74.9966 91.4933 75.2686 90.8107 75.2686 90C75.2686 89.1893 74.9966 88.512 74.4526 87.968C73.9086 87.4133 73.2366 87.136 72.4366 87.136C71.626 87.136 70.9486 87.4133 70.4046 87.968C69.8606 88.512 69.5886 89.1893 69.5886 90C69.5886 90.8107 69.8606 91.4933 70.4046 92.048C70.9486 92.592 71.626 92.864 72.4366 92.864ZM85.0736 92.992C84.2523 93.8027 83.255 94.208 82.0816 94.208C80.9083 94.208 79.911 93.8027 79.0896 92.992C78.279 92.1813 77.8736 91.184 77.8736 90C77.8736 88.816 78.279 87.8187 79.0896 87.008C79.911 86.1973 80.9083 85.792 82.0816 85.792C83.255 85.792 84.2523 86.1973 85.0736 87.008C85.895 87.8187 86.3056 88.816 86.3056 90C86.3056 91.184 85.895 92.1813 85.0736 92.992ZM82.0816 92.848C82.8816 92.848 83.5536 92.576 84.0976 92.032C84.6416 91.488 84.9136 90.8107 84.9136 90C84.9136 89.1893 84.6416 88.512 84.0976 87.968C83.5536 87.424 82.8816 87.152 82.0816 87.152C81.2923 87.152 80.6256 87.424 80.0816 87.968C79.5376 88.512 79.2656 89.1893 79.2656 90C79.2656 90.8107 79.5376 91.488 80.0816 92.032C80.6256 92.576 81.2923 92.848 82.0816 92.848ZM91.5786 94.208C90.3946 94.208 89.4186 93.8187 88.6506 93.04C87.8826 92.2613 87.4986 91.2587 87.4986 90.032C87.4986 88.6667 87.696 87.616 88.0906 86.88C88.496 86.144 89.3173 85.4773 90.5546 84.88C90.7786 84.7733 91.0826 84.6347 91.4666 84.464C91.8613 84.2933 92.1493 84.1653 92.3306 84.08C92.512 83.984 92.7146 83.8613 92.9386 83.712C93.1626 83.552 93.328 83.3813 93.4346 83.2C93.552 83.008 93.6373 82.7893 93.6906 82.544L94.8106 83.184C94.7786 83.3547 94.736 83.5147 94.6826 83.664C94.6293 83.8027 94.5493 83.9413 94.4426 84.08C94.3466 84.208 94.2613 84.32 94.1866 84.416C94.112 84.512 93.984 84.6187 93.8026 84.736C93.632 84.8427 93.504 84.9227 93.4186 84.976C93.344 85.0293 93.1893 85.1093 92.9546 85.216C92.7306 85.3227 92.576 85.3973 92.4906 85.44C92.416 85.472 92.24 85.5467 91.9626 85.664C91.6853 85.7707 91.5146 85.84 91.4506 85.872C90.7253 86.1813 90.192 86.496 89.8506 86.816C89.52 87.136 89.28 87.5413 89.1306 88.032C89.472 87.6053 89.8986 87.2907 90.4106 87.088C90.9226 86.8853 91.4346 86.784 91.9466 86.784C92.9493 86.784 93.7973 87.1253 94.4906 87.808C95.1946 88.4907 95.5466 89.3707 95.5466 90.448C95.5466 91.536 95.1733 92.4373 94.4266 93.152C93.68 93.856 92.7306 94.208 91.5786 94.208ZM89.7066 92.16C90.208 92.6293 90.832 92.864 91.5786 92.864C92.3253 92.864 92.9386 92.6347 93.4186 92.176C93.9093 91.7173 94.1546 91.1413 94.1546 90.448C94.1546 89.7333 93.92 89.152 93.4506 88.704C92.992 88.2453 92.384 88.016 91.6266 88.016C90.944 88.016 90.3253 88.2347 89.7706 88.672C89.2266 89.0987 88.9546 89.664 88.9546 90.368C88.9546 91.0933 89.2053 91.6907 89.7066 92.16ZM103.416 86V94H102.024V87.344H98.8715V90.608C98.8715 91.92 98.6048 92.8373 98.0715 93.36C97.5488 93.872 96.8075 94.0853 95.8475 94V92.688C96.3915 92.7627 96.7968 92.6453 97.0635 92.336C97.3408 92.016 97.4795 91.4293 97.4795 90.576V86H103.416ZM106.501 90.64C106.639 91.3547 106.965 91.9093 107.477 92.304C107.999 92.6987 108.639 92.896 109.397 92.896C110.453 92.896 111.221 92.5067 111.701 91.728L112.885 92.4C112.106 93.6053 110.933 94.208 109.365 94.208C108.095 94.208 107.061 93.8133 106.261 93.024C105.471 92.224 105.077 91.216 105.077 90C105.077 88.7947 105.466 87.792 106.245 86.992C107.023 86.192 108.031 85.792 109.269 85.792C110.442 85.792 111.397 86.208 112.133 87.04C112.879 87.8613 113.253 88.8533 113.253 90.016C113.253 90.2187 113.237 90.4267 113.205 90.64H106.501ZM109.269 87.104C108.522 87.104 107.903 87.3173 107.413 87.744C106.922 88.16 106.618 88.72 106.501 89.424H111.845C111.727 88.6667 111.429 88.0907 110.949 87.696C110.469 87.3013 109.909 87.104 109.269 87.104ZM122.853 86V94H121.493V88.192L118.949 92.288H118.773L116.229 88.192V94H114.853V86H116.341L118.853 90.048L121.365 86H122.853ZM128.354 88.88C129.154 88.88 129.815 89.12 130.338 89.6C130.871 90.0693 131.138 90.6827 131.138 91.44C131.138 92.1973 130.871 92.816 130.338 93.296C129.815 93.7653 129.154 94 128.354 94H124.978V86H126.37V88.88H128.354ZM132.178 86H133.57V94H132.178V86ZM128.354 92.704C128.749 92.704 129.079 92.592 129.346 92.368C129.623 92.1333 129.762 91.824 129.762 91.44C129.762 91.056 129.623 90.7467 129.346 90.512C129.079 90.2773 128.749 90.16 128.354 90.16H126.37V92.704H128.354ZM143.457 94.208C142.251 94.208 141.249 93.808 140.449 93.008C139.649 92.1973 139.249 91.1947 139.249 90C139.249 88.8053 139.649 87.808 140.449 87.008C141.249 86.1973 142.251 85.792 143.457 85.792C144.246 85.792 144.955 85.984 145.585 86.368C146.214 86.7413 146.683 87.248 146.993 87.888L145.825 88.56C145.622 88.1333 145.307 87.792 144.881 87.536C144.465 87.28 143.99 87.152 143.457 87.152C142.657 87.152 141.985 87.424 141.441 87.968C140.907 88.512 140.641 89.1893 140.641 90C140.641 90.8 140.907 91.472 141.441 92.016C141.985 92.56 142.657 92.832 143.457 92.832C143.99 92.832 144.47 92.7093 144.897 92.464C145.323 92.208 145.649 91.8667 145.873 91.44L147.057 92.128C146.715 92.7573 146.225 93.264 145.585 93.648C144.945 94.0213 144.235 94.208 143.457 94.208ZM82.8057 113.904C83.691 114.267 84.1337 114.901 84.1337 115.808C84.1337 116.48 83.867 117.051 83.3337 117.52C82.8004 117.979 82.043 118.208 81.0617 118.208C79.4617 118.208 78.3897 117.568 77.8457 116.288L79.0137 115.6C79.323 116.475 80.011 116.912 81.0777 116.912C81.611 116.912 82.0217 116.8 82.3097 116.576C82.6084 116.341 82.7577 116.043 82.7577 115.68C82.7577 115.36 82.635 115.099 82.3897 114.896C82.155 114.693 81.835 114.592 81.4297 114.592H80.2617V113.328H81.1257C81.531 113.328 81.8457 113.232 82.0697 113.04C82.2937 112.837 82.4057 112.565 82.4057 112.224C82.4057 111.883 82.2724 111.605 82.0057 111.392C81.7497 111.179 81.3924 111.072 80.9337 111.072C80.0377 111.072 79.4297 111.451 79.1097 112.208L77.9737 111.552C78.539 110.379 79.5257 109.792 80.9337 109.792C81.8084 109.792 82.4964 110.016 82.9977 110.464C83.5097 110.912 83.7657 111.461 83.7657 112.112C83.7657 112.923 83.4457 113.52 82.8057 113.904ZM90.9134 110H92.4014L89.1374 118.496C88.7961 119.403 88.3161 120.091 87.6974 120.56C87.0788 121.04 86.3748 121.253 85.5854 121.2V119.904C86.5668 119.979 87.2868 119.445 87.7454 118.304L87.8734 118.016L84.4014 110H85.8734L88.6094 116.272L90.9134 110ZM96.8833 118.208C95.6993 118.208 94.7233 117.819 93.9553 117.04C93.1873 116.261 92.8033 115.259 92.8033 114.032C92.8033 112.667 93.0006 111.616 93.3953 110.88C93.8006 110.144 94.622 109.477 95.8593 108.88C96.0833 108.773 96.3873 108.635 96.7713 108.464C97.166 108.293 97.454 108.165 97.6353 108.08C97.8166 107.984 98.0193 107.861 98.2433 107.712C98.4673 107.552 98.6326 107.381 98.7393 107.2C98.8566 107.008 98.942 106.789 98.9953 106.544L100.115 107.184C100.083 107.355 100.041 107.515 99.9873 107.664C99.934 107.803 99.854 107.941 99.7473 108.08C99.6513 108.208 99.566 108.32 99.4913 108.416C99.4166 108.512 99.2886 108.619 99.1073 108.736C98.9366 108.843 98.8086 108.923 98.7233 108.976C98.6486 109.029 98.494 109.109 98.2593 109.216C98.0353 109.323 97.8806 109.397 97.7953 109.44C97.7206 109.472 97.5446 109.547 97.2673 109.664C96.99 109.771 96.8193 109.84 96.7553 109.872C96.03 110.181 95.4966 110.496 95.1553 110.816C94.8246 111.136 94.5846 111.541 94.4353 112.032C94.7766 111.605 95.2033 111.291 95.7153 111.088C96.2273 110.885 96.7393 110.784 97.2513 110.784C98.254 110.784 99.102 111.125 99.7953 111.808C100.499 112.491 100.851 113.371 100.851 114.448C100.851 115.536 100.478 116.437 99.7313 117.152C98.9846 117.856 98.0353 118.208 96.8833 118.208ZM95.0113 116.16C95.5126 116.629 96.1366 116.864 96.8833 116.864C97.63 116.864 98.2433 116.635 98.7233 116.176C99.214 115.717 99.4593 115.141 99.4593 114.448C99.4593 113.733 99.2246 113.152 98.7553 112.704C98.2966 112.245 97.6886 112.016 96.9313 112.016C96.2486 112.016 95.63 112.235 95.0753 112.672C94.5313 113.099 94.2593 113.664 94.2593 114.368C94.2593 115.093 94.51 115.691 95.0113 116.16ZM108.953 110H110.345V118H108.953V116.624C108.26 117.68 107.252 118.208 105.929 118.208C104.809 118.208 103.855 117.803 103.065 116.992C102.276 116.171 101.881 115.173 101.881 114C101.881 112.827 102.276 111.835 103.065 111.024C103.855 110.203 104.809 109.792 105.929 109.792C107.252 109.792 108.26 110.32 108.953 111.376V110ZM106.105 116.864C106.916 116.864 107.593 116.592 108.137 116.048C108.681 115.493 108.953 114.811 108.953 114C108.953 113.189 108.681 112.512 108.137 111.968C107.593 111.413 106.916 111.136 106.105 111.136C105.305 111.136 104.633 111.413 104.089 111.968C103.545 112.512 103.273 113.189 103.273 114C103.273 114.811 103.545 115.493 104.089 116.048C104.633 116.592 105.305 116.864 106.105 116.864ZM120.454 110V118H119.094V112.192L116.55 116.288H116.374L113.83 112.192V118H112.454V110H113.942L116.454 114.048L118.966 110H120.454ZM128.387 110H129.507V118H128.131V112.384L123.699 118H122.579V110H123.955V115.616L128.387 110Z" fill="#00040A"/>
</g>
<defs>
<filter id="filter0_d_80_292" x="0" y="0" width="208" height="150" filterUnits="userSpaceOnUse" color-interpolation-filters="sRGB">
<feFlood flood-opacity="0" result="BackgroundImageFix"/>
<feColorMatrix in="SourceAlpha" type="matrix" values="0 0 0 0 0 0 0 0 0 0 0 0 0 0 0 0 0 0 127 0" result="hardAlpha"/>
<feOffset/>
<feGaussianBlur stdDeviation="5"/>
<feComposite in2="hardAlpha" operator="out"/>
<feColorMatrix type="matrix" values="0 0 0 0 0 0 0 0 0 0 0 0 0 0 0 0 0 0 0.08 0"/>
<feBlend mode="normal" in2="BackgroundImageFix" result="effect1_dropShadow_80_292"/>
<feBlend mode="normal" in="SourceGraphic" in2="effect1_dropShadow_80_292" result="shape"/>
</filter>
</defs>
</svg>
