<svg width="32" height="28" viewBox="0 0 32 28" fill="none" xmlns="http://www.w3.org/2000/svg">
<g id="Group">
<g id="Group_2">
<path id="Vector" d="M30.7691 8.51005C30.6551 8.27767 30.3744 8.18155 30.1418 8.29567C29.9093 8.40967 29.8134 8.69055 29.9274 8.92299C30.8656 10.8353 31.0625 12.8027 31.0625 14.1164C31.0625 15.8916 30.6942 19.2381 28.2279 21.7044C27.4402 22.4921 26.3929 22.9259 25.2789 22.9259C24.1651 22.9259 23.1178 22.4921 22.3301 21.7044C21.5423 20.9167 21.1086 19.8695 21.1086 18.7555C21.1086 18.0453 21.2856 17.3626 21.6175 16.7566C21.6273 16.7417 21.6358 16.7262 21.6437 16.7103C21.8282 16.3835 22.0574 16.0792 22.33 15.8066C22.4931 15.6435 22.6286 15.4656 22.7366 15.2761C22.7383 15.2731 22.7401 15.2702 22.7417 15.2672C22.7684 15.2199 22.7936 15.172 22.8168 15.1234C23.3027 15.4188 23.5937 15.8706 23.7368 16.1502C23.8198 16.3122 23.9841 16.4054 24.1544 16.4054C24.2263 16.4054 24.2993 16.3887 24.3677 16.3537C24.5982 16.2357 24.6892 15.9533 24.5713 15.7229C24.2109 15.0192 23.6752 14.4832 23.0397 14.1799C23.0403 14.1587 23.0413 14.1377 23.0413 14.1164C23.0413 13.9992 23.0328 13.8839 23.0165 13.7709C23.6628 13.4699 24.2054 12.9312 24.5713 12.2167C24.6893 11.9862 24.5981 11.7038 24.3676 11.5858C24.1371 11.4677 23.8547 11.5589 23.7367 11.7894C23.5803 12.095 23.253 12.5961 22.6943 12.8847C22.673 12.8502 22.6507 12.8162 22.6274 12.7825C22.6219 12.7744 22.6164 12.7664 22.6104 12.7587C22.5281 12.6424 22.4349 12.531 22.33 12.4262C20.7039 10.8001 20.7039 8.15436 22.33 6.5283C23.1176 5.74061 24.1649 5.3068 25.2789 5.3068C26.3928 5.3068 27.4401 5.74061 28.2279 6.52836C28.4286 6.72911 28.6221 6.94292 28.803 7.16392C28.9669 7.3643 29.2624 7.39374 29.4626 7.22974C29.663 7.06574 29.6925 6.77042 29.5285 6.57011C29.328 6.32511 29.1134 6.08805 28.8908 5.86542C26.8992 3.8738 23.6586 3.87386 21.6671 5.86542C19.9867 7.54586 19.7242 10.1154 20.8795 12.0737L20.2453 11.852C19.572 11.6166 19.0066 11.1459 18.6533 10.5263L17.7779 8.99136C17.5292 8.55536 17.3978 8.05967 17.3978 7.55774V2.17167C17.3978 1.40874 16.8129 0.783548 16.0662 0.748423C15.6791 0.730298 15.3131 0.866985 15.0339 1.13342C14.7586 1.39611 14.6006 1.76492 14.6006 2.14542V7.5578C14.6006 8.05967 14.4692 8.55542 14.2206 8.99142L13.3453 10.5262C12.9919 11.1458 12.4264 11.6166 11.7532 11.8519L11.1221 12.0725C11.5826 11.2945 11.8289 10.4049 11.8289 9.47711C11.8289 8.11274 11.2976 6.83005 10.3328 5.8653C9.36806 4.90055 8.08537 4.36917 6.721 4.36917C5.35663 4.36917 4.07387 4.90049 3.10919 5.8653C0.403938 8.57067 0 12.196 0 14.1164C0 15.7832 0.313062 18.9702 2.40981 21.5864C2.57169 21.7884 2.86675 21.821 3.06875 21.659C3.27075 21.4972 3.30325 21.2021 3.14138 21.0001C1.22381 18.6075 0.9375 15.6602 0.9375 14.1164C0.9375 12.3411 1.30575 8.99467 3.77213 6.5283C4.55981 5.74061 5.60706 5.3068 6.72106 5.3068C7.835 5.3068 8.88231 5.74061 9.67 6.5283C10.4577 7.31599 10.8915 8.36324 10.8915 9.47724C10.8915 10.5912 10.4578 11.6385 9.67 12.4262C9.56525 12.5309 9.47231 12.642 9.39006 12.758C9.38412 12.7657 9.37862 12.7737 9.37319 12.7817C9.34975 12.8156 9.32719 12.8499 9.30569 12.8847C8.747 12.5961 8.41969 12.095 8.26319 11.7894C8.14519 11.5589 7.86269 11.4679 7.63231 11.5858C7.40188 11.7038 7.31075 11.9862 7.42875 12.2167C7.79463 12.9312 8.33731 13.4699 8.9835 13.7709C8.96719 13.8839 8.95881 13.9992 8.95881 14.1163C8.95881 14.1376 8.95981 14.1587 8.96031 14.1799C8.32475 14.4832 7.78906 15.0191 7.42875 15.7229C7.31075 15.9533 7.40194 16.2357 7.63231 16.3537C7.70075 16.3887 7.77369 16.4054 7.84556 16.4054C8.01594 16.4054 8.18019 16.3122 8.26319 16.1502C8.40637 15.8706 8.69725 15.4188 9.18325 15.1234C9.20763 15.1745 9.23431 15.2249 9.26256 15.2745C9.26606 15.2808 9.26962 15.2871 9.27337 15.2932C9.37975 15.4764 9.51187 15.6485 9.66994 15.8066C9.94244 16.0791 10.1714 16.3831 10.3559 16.7097C10.364 16.7259 10.3728 16.7418 10.3827 16.757C10.7144 17.3629 10.8914 18.0455 10.8914 18.7555C10.8914 19.8694 10.4576 20.9167 9.66988 21.7044C8.34 23.0342 6.27381 23.3097 4.64537 22.3741C4.42087 22.2451 4.13438 22.3225 4.00537 22.547C3.87644 22.7715 3.95387 23.058 4.17831 23.187C4.96944 23.6414 5.84469 23.8627 6.71462 23.8627C8.0385 23.8627 9.34994 23.3502 10.3328 22.3674C11.2975 21.4026 11.8288 20.1199 11.8288 18.7556C11.8288 18.2381 11.752 17.7325 11.6045 17.2515L11.6706 17.2722C12.0842 17.4017 12.3621 17.78 12.3621 18.2134V25.8549C12.3621 26.6261 12.9895 27.2534 13.7607 27.2534C14.5319 27.2534 15.1593 26.6261 15.1593 25.8549V18.2134C15.1593 16.5508 14.0933 15.0999 12.5067 14.6028L12.4295 14.5786L12.6761 14.4924C13.9866 14.0343 15.0871 13.1179 15.7749 11.912L15.9991 11.5188L16.2233 11.9119C16.9111 13.1179 18.0116 14.0343 19.3222 14.4924L19.5695 14.5789L19.4931 14.6028C17.9064 15.0998 16.8405 16.5508 16.8405 18.2134V25.8549C16.8405 26.6261 17.4679 27.2534 18.2391 27.2534C19.0103 27.2534 19.6376 26.6261 19.6376 25.8549V18.2134C19.6376 17.78 19.9155 17.4017 20.3292 17.2722L20.3953 17.2515C20.2478 17.7325 20.1709 18.2381 20.1709 18.7556C20.1709 20.1199 20.7022 21.4027 21.6669 22.3674C22.6629 23.3633 23.9706 23.8612 25.2788 23.861C26.5866 23.8609 27.8949 23.3631 28.8906 22.3674C31.5961 19.6621 32 16.0366 32 14.1164C32 12.7034 31.7864 10.5839 30.7691 8.51005ZM14.2219 18.2134V25.8549C14.2219 26.1091 14.0151 26.3159 13.7608 26.3159C13.5066 26.3159 13.2998 26.1091 13.2998 25.8549V18.2134C13.2998 17.368 12.7577 16.6302 11.9509 16.3775L11.0908 16.1081C10.9096 15.8101 10.6959 15.5296 10.4528 15.2696L10.9472 15.0968L12.2265 15.4975C13.4201 15.8713 14.2219 16.9628 14.2219 18.2134ZM17.0378 11.4474L16.4876 10.4827C16.3877 10.3077 16.2005 10.199 15.9991 10.199C15.7976 10.1991 15.6105 10.3078 15.5108 10.4827L14.9605 11.4475C14.3849 12.4569 13.4637 13.2239 12.3667 13.6074L9.9375 14.4565C9.91106 14.3472 9.89612 14.2341 9.89612 14.1163C9.89612 13.8694 9.95469 13.641 10.0702 13.4333L12.0625 12.7369C12.9493 12.4269 13.6941 11.8068 14.1596 10.9907L15.0349 9.45586C15.3641 8.87861 15.5381 8.2223 15.5381 7.5578V2.14542C15.5381 2.01811 15.5888 1.89961 15.6809 1.81174C15.773 1.72392 15.8944 1.67892 16.022 1.68486C16.2636 1.69624 16.4602 1.91461 16.4602 2.17167V7.55767C16.4602 8.22217 16.6342 8.87855 16.9634 9.4558L17.8388 10.9907C18.3041 11.8067 19.0489 12.4269 19.9359 12.7369L21.93 13.4339C22.0453 13.6415 22.1037 13.8697 22.1037 14.1163C22.1037 14.2343 22.0887 14.3476 22.0622 14.457L19.6316 13.6074C18.5347 13.224 17.6135 12.4569 17.0378 11.4474ZM20.049 16.3775C19.2423 16.6302 18.7002 17.368 18.7002 18.2134V25.8549C18.7002 26.1091 18.4933 26.3159 18.2391 26.3159C17.9849 26.3159 17.7781 26.1091 17.7781 25.8549V18.2134C17.7781 16.9628 18.5799 15.8713 19.7734 15.4975L21.052 15.097L21.5468 15.27C21.3038 15.5298 21.0903 15.8102 20.9091 16.108L20.049 16.3775Z" fill="#7007CA"/>
</g>
</g>
</svg>
