<svg width="28" height="32" viewBox="0 0 28 32" fill="none" xmlns="http://www.w3.org/2000/svg">
<g id="Image">
<g id="Group">
<path id="Vector" d="M27.4745 18.3426C27.2525 17.6726 25.2605 11.7631 23.811 10.6086C22.8415 9.83757 19.831 8.16357 17.0325 7.65407C17.1545 6.96807 17.501 4.58907 17.501 3.97907C17.501 2.29507 16.8005 1.19157 15.6235 1.01207C12.6665 -0.0734262 11.162 0.672074 9.8895 1.92457C8.734 3.06307 8.7235 2.24457 8.2185 2.58607C7.505 3.07357 8.536 5.38307 9.4645 6.21257C9.4215 6.67157 9.43 7.55207 9.923 8.50157C7.949 9.16107 6.2565 10.0496 5.4525 10.8701C3.972 12.3861 1.2005 16.5466 1.0835 16.7231C0.8325 17.1006 1.1575 17.3796 1.4725 17.7236C0.805 18.8051 0.5 20.3481 0.5 21.5001C0.5 24.0231 5.6665 26.4731 7.2305 28.4926C7.4625 28.7926 7.7105 29.1061 8 29.3716V31.0001C8 31.2761 8.2235 31.5001 8.5 31.5001C8.7765 31.5001 9 31.2761 9 31.0001V29.9336C9.1565 29.9721 9.3195 30.0001 9.5 30.0001C10.247 30.0001 11.5 29.6756 11.5 27.5001C11.5 26.2571 7.4975 22.5426 5.1605 21.2701L5.3075 20.9566C5.834 21.1786 6.0385 20.5326 7.446 19.5846C7.7645 20.7166 8 21.8166 8 22.5001C8 22.7761 8.2235 23.0001 8.5 23.0001C8.7765 23.0001 9 22.7761 9 22.5001C9 21.5416 8.6405 20.0286 8.2035 18.6086C8.2 18.5946 8.1955 18.5816 8.1905 18.5676C7.755 17.1581 7.2465 15.8456 6.942 15.2671C6.8135 15.0231 6.5105 14.9291 6.2665 15.0576C6.0225 15.1861 5.928 15.4886 6.057 15.7331C6.337 16.2656 6.758 17.3611 7.1365 18.5516L5.468 19.8851C3.923 18.8581 2.646 17.5291 2.129 16.9586C2.8145 15.9441 4.9805 12.7841 6.1665 11.5696C7.53 10.1791 11.9965 8.50007 15.5 8.50007C18.346 8.50007 22.1535 10.5686 23.1885 11.3911C24.063 12.0876 25.574 15.8636 26.4095 18.3126C26.0075 18.5541 25.012 19.0251 22.896 19.4526C22.9885 18.0736 23.048 16.5511 23 14.9846C22.9905 14.7086 22.756 14.4891 22.4845 14.5001C22.2085 14.5086 21.992 14.7396 22 15.0151C22.0835 17.7036 21.8425 20.2971 21.666 22.1911C21.3665 25.4136 21.57 23.5366 21.5 31.0001C21.5 31.2761 21.7235 31.5001 22 31.5001C22.2765 31.5001 22.5 31.2761 22.5 31.0001V27.0531C26.302 24.0236 26.5 23.6616 26.5 20.5001C26.5 19.8386 25.5 19.8381 25.5 20.5001C25.5 23.1166 25.4925 23.3706 22.5 25.7736V24.5001C22.5 23.7611 22.667 22.3786 22.8205 20.4856C23.932 20.2721 27.829 19.4081 27.4745 18.3426ZM4.4625 20.4036C4.409 20.6836 3.5805 21.6431 4.2995 21.9581C6.6005 22.9671 10.3775 26.7841 10.5 27.5001C10.5 29.0001 9.8245 29.0001 9.5 29.0001C8.5595 29.0001 8.128 27.7961 7.185 26.9161C6.2925 26.0826 1.5 23.1301 1.5 21.5001C1.5 20.6006 1.7225 19.3691 2.196 18.4726C2.778 19.0476 3.56 19.7546 4.4625 20.4036ZM9.0525 3.55607C10.904 3.39557 10.9265 0.297074 15.3195 1.96607C15.4875 2.03207 16.5005 1.98107 16.5005 3.97907C16.5005 5.38557 16.248 5.56707 16.2375 5.57357C15.0805 6.28607 13.124 6.13707 12.3815 6.04757C12.184 5.55907 11.7545 5.00007 11 5.00007C10.646 5.00007 10.279 5.18907 10.017 5.36207C9.6115 4.93557 9.202 4.15957 9.0525 3.55607ZM10.9075 8.19857C10.413 7.36007 10.4265 6.58857 10.464 6.27157C11.654 5.39857 11.2055 6.86957 11.915 6.99307C13.1435 7.20757 14.9315 7.20257 16.1715 6.71357C16.131 6.98607 16.0865 7.26707 16.0405 7.52307C14.45 7.40557 12.443 7.76707 10.9075 8.19857Z" fill="#7007CA"/>
<path id="Vector_2" d="M22.9161 7.77752C23.4336 6.81002 24.4481 6.03052 23.7776 5.58402C23.1091 5.13702 22.7981 6.34802 22.0841 7.22252C21.7136 7.77752 22.5566 8.31752 22.9161 7.77752Z" fill="#7007CA"/>
<path id="Vector_3" d="M5.08404 7.77752C5.23654 8.00702 5.54704 8.06952 5.77754 7.91602C6.00754 7.76302 6.06954 7.45252 5.91604 7.22252L4.91604 5.72252C4.76304 5.49252 4.45254 5.43002 4.22254 5.58402C3.99254 5.73702 3.93054 6.04752 4.08404 6.27752L5.08404 7.77752Z" fill="#7007CA"/>
<path id="Vector_4" d="M25.3534 9.35353C26.2559 8.28253 27.4379 7.73103 26.8534 7.14653C26.2689 6.56203 25.7149 7.74603 24.6464 8.64653C24.1779 9.11503 24.8904 9.81653 25.3534 9.35353Z" fill="#7007CA"/>
<path id="Vector_5" d="M2.64638 9.85363C3.10738 10.3146 3.82738 9.62012 3.35338 9.14662L1.85338 7.64662C1.65788 7.45112 1.34188 7.45112 1.14638 7.64662C0.950881 7.84212 0.950881 8.15813 1.14638 8.35363L2.64638 9.85363Z" fill="#7007CA"/>
<path id="Vector_6" d="M13.3534 21.1466C13.1579 20.9511 12.8419 20.9511 12.6464 21.1466L11.1464 22.6466C10.9509 22.8421 10.9509 23.1581 11.1464 23.3536C11.2439 23.4511 11.3719 23.5001 11.4999 23.5001C11.6279 23.5001 11.7559 23.4511 11.8534 23.3536L13.3534 21.8536C13.5489 21.6581 13.5489 21.3421 13.3534 21.1466Z" fill="#7007CA"/>
<path id="Vector_7" d="M15.2764 24.0526L13.2764 25.0526C13.0294 25.1761 12.9294 25.4766 13.0529 25.7236C13.1404 25.8991 13.3169 26.0001 13.5004 26.0001C13.5754 26.0001 13.6519 25.9831 13.7234 25.9476L15.7234 24.9476C15.9704 24.8241 16.0704 24.5236 15.9469 24.2766C15.8229 24.0296 15.5234 23.9291 15.2764 24.0526Z" fill="#7007CA"/>
<path id="Vector_8" d="M15.621 28.515L13.621 28.015C13.3525 27.946 13.0815 28.111 13.015 28.379C12.9475 28.647 13.1105 28.9185 13.379 28.9855L15.379 29.4855C15.4195 29.496 15.4605 29.5005 15.5005 29.5005C15.7245 29.5005 15.928 29.349 15.985 29.122C16.052 28.8535 15.889 28.582 15.621 28.515Z" fill="#7007CA"/>
</g>
</g>
</svg>
