<svg width="22" height="32" viewBox="0 0 22 32" fill="none" xmlns="http://www.w3.org/2000/svg">
<g id="Group">
<path id="Vector" d="M3.6191 12.8262L1.60998 11.8629C1.37667 11.7509 1.09654 11.8494 0.984665 12.0829C0.872728 12.3163 0.971227 12.5963 1.20473 12.7083L3.21385 13.6716C3.44766 13.7838 3.72748 13.6845 3.83917 13.4515C3.95104 13.2181 3.85254 12.9381 3.6191 12.8262Z" fill="#7007CA"/>
<path id="Vector_2" d="M3.21384 18.3284L1.20472 19.2917C0.97128 19.4037 0.872717 19.6837 0.984655 19.9171C1.06522 20.0851 1.23297 20.1833 1.40765 20.1833C1.47565 20.1833 1.54465 20.1685 1.60997 20.1371L3.61909 19.1738C3.85253 19.0619 3.95109 18.7819 3.83915 18.5485C3.72722 18.3149 3.44697 18.2165 3.21384 18.3284Z" fill="#7007CA"/>
<path id="Vector_3" d="M3.41659 16.572C3.67553 16.572 3.88534 16.3622 3.88534 16.1033C3.88534 15.8443 3.67553 15.6345 3.41659 15.6345H1.26978C1.01084 15.6345 0.801025 15.8443 0.801025 16.1033C0.801025 16.3622 1.01084 16.572 1.26978 16.572H3.41659Z" fill="#7007CA"/>
<path id="Vector_4" d="M18.786 13.6715L20.7951 12.7082C21.0286 12.5963 21.1271 12.3163 21.0152 12.0829C20.9033 11.8494 20.6231 11.7509 20.3899 11.8628L18.3807 12.8262C18.1473 12.9381 18.0487 13.2181 18.1607 13.4515C18.2728 13.6854 18.5532 13.7833 18.786 13.6715Z" fill="#7007CA"/>
<path id="Vector_5" d="M20.7951 19.2918L18.786 18.3285C18.5527 18.2165 18.2726 18.315 18.1607 18.5485C18.0488 18.7819 18.1473 19.0619 18.3808 19.1738L20.3899 20.1371C20.4553 20.1685 20.5242 20.1833 20.5922 20.1833C20.7669 20.1833 20.9346 20.0852 21.0152 19.9171C21.1271 19.6836 21.0286 19.4037 20.7951 19.2918Z" fill="#7007CA"/>
<path id="Vector_6" d="M20.7301 15.6345H18.5833C18.3243 15.6345 18.1145 15.8443 18.1145 16.1033C18.1145 16.3622 18.3243 16.572 18.5833 16.572H20.7301C20.989 16.572 21.1988 16.3622 21.1988 16.1033C21.1988 15.8443 20.989 15.6345 20.7301 15.6345Z" fill="#7007CA"/>
<path id="Vector_7" d="M13.4869 16.2873C12.5826 16.2437 11.7128 16.5117 11 17.0468C10.2872 16.5115 9.41849 16.244 8.51293 16.2873C6.49724 16.3842 4.89362 18.042 4.86206 20.0615C4.84331 21.2618 5.37118 22.3793 6.31031 23.1275C7.20568 23.8409 7.71924 24.8792 7.71924 25.9763V27.4792C7.71924 27.7381 7.92905 27.9479 8.18799 27.9479C8.44693 27.9479 8.65674 27.7381 8.65674 27.4792V25.9763C8.65674 24.5922 8.01443 23.2865 6.89449 22.3943C6.18443 21.8286 5.78531 20.9837 5.79943 20.0762C5.82331 18.5499 7.03499 17.297 8.55793 17.2237C9.60674 17.1735 10.5223 17.6767 11.0664 18.4395C11.4559 18.9855 12.0367 19.3579 12.7017 19.4879L12.9179 19.5302C13.1702 19.5799 13.418 19.4157 13.468 19.1602C13.5177 18.9062 13.3521 18.6599 13.098 18.6102L12.8817 18.5679C12.4529 18.484 12.0793 18.245 11.8297 17.8951C11.7843 17.8314 11.7369 17.7691 11.6876 17.7082C12.2014 17.3634 12.8102 17.1932 13.442 17.2237C14.965 17.2969 16.1768 18.5497 16.2007 20.076C16.2256 21.6668 14.9411 23.0252 13.2986 23.0252C12.9342 23.0252 12.5791 22.9587 12.2432 22.8275C12.0021 22.7336 11.7303 22.8525 11.6361 23.0937C11.5419 23.3348 11.661 23.6067 11.9022 23.7009C12.3472 23.8746 12.8171 23.9627 13.2986 23.9627C13.3135 23.9627 13.3284 23.9626 13.3434 23.9624V31.5313C13.3434 31.7902 13.5532 32 13.8121 32C14.0711 32 14.2809 31.7902 14.2809 31.5313V23.8357C15.962 23.3911 17.1658 21.835 17.1381 20.0614C17.1064 18.0419 15.5027 16.3841 13.4869 16.2873Z" fill="#7007CA"/>
<path id="Vector_8" d="M8.18799 28.8228C7.92905 28.8228 7.71924 29.0326 7.71924 29.2915V31.5312C7.71924 31.7901 7.92905 31.9999 8.18799 31.9999C8.44693 31.9999 8.65674 31.7901 8.65674 31.5312V29.2915C8.65674 29.0326 8.44693 28.8228 8.18799 28.8228Z" fill="#7007CA"/>
<path id="Vector_9" d="M15.9055 9.68937C15.6864 9.82712 15.6204 10.1165 15.758 10.3357C16.0564 10.8106 16.2095 11.3598 16.2007 11.9239C16.1768 13.4503 14.9651 14.7032 13.4421 14.7764C12.413 14.8263 11.4886 14.3387 10.9337 13.5606C10.5442 13.0146 9.96342 12.6423 9.29835 12.5122L9.08217 12.4699C8.8281 12.4199 8.58179 12.5859 8.5321 12.8399C8.48235 13.094 8.64804 13.3403 8.9021 13.39L9.11835 13.4323C9.54717 13.5162 9.92079 13.7551 10.1704 14.1051C10.2158 14.1687 10.2632 14.2311 10.3125 14.2919C9.79886 14.6368 9.19042 14.8072 8.55798 14.7764C7.03504 14.7033 5.82329 13.4504 5.79942 11.9241C5.77442 10.3259 7.06617 8.97494 8.70154 8.97494C9.06592 8.97494 9.42098 9.04144 9.75685 9.17262C10.0001 9.2675 10.2706 9.14569 10.364 8.9065C10.4582 8.66537 10.3391 8.3935 10.0979 8.29931C9.65285 8.12556 9.18304 8.03744 8.70154 8.03744C8.6866 8.03744 8.67167 8.03756 8.65673 8.03775V0.46875C8.65673 0.209812 8.44692 0 8.18798 0C7.92904 0 7.71923 0.209812 7.71923 0.46875V8.16438C6.0381 8.609 4.83429 10.1651 4.86204 11.9387C4.89367 13.9583 6.49736 15.6161 8.51298 15.7128C9.4186 15.7558 10.2872 15.4886 11 14.9533C11.7156 15.4908 12.5847 15.7561 13.4871 15.7128C15.5028 15.616 17.1064 13.9582 17.138 11.9386C17.1497 11.1926 16.9469 10.4659 16.5518 9.83694C16.4141 9.61781 16.1247 9.55181 15.9055 9.68937Z" fill="#7007CA"/>
<path id="Vector_10" d="M14.8774 9.21813C14.9893 9.21813 15.1016 9.17831 15.1912 9.09756C15.3835 8.92425 15.3988 8.62781 15.2256 8.4355C14.6164 7.75975 14.281 6.90319 14.281 6.02375V0.46875C14.281 0.209812 14.0712 0 13.8123 0C13.5533 0 13.3435 0.209812 13.3435 0.46875V6.02381C13.3435 7.1355 13.7646 8.215 14.5292 9.06325C14.6217 9.16587 14.7493 9.21813 14.8774 9.21813Z" fill="#7007CA"/>
</g>
</svg>
